<svg width="32" height="32" viewBox="0 0 32 32" fill="none" xmlns="http://www.w3.org/2000/svg">
<path d="M28.7166 1.06043L16 13.777L3.28342 1.06041L3.02937 1.31446L3.28342 1.06041C2.66955 0.446539 1.67424 0.446513 1.0604 1.06043C0.446633 1.67427 0.44649 2.66956 1.06041 3.28342C1.06042 3.28343 1.06043 3.28343 1.06043 3.28344L13.777 16L1.06041 28.7166C0.446544 29.3305 0.446513 30.3258 1.06041 30.9396C1.36729 31.2465 1.77031 31.4 2.17195 31.4C2.57361 31.4 2.97655 31.2465 3.28344 30.9397L3.28348 30.9396L16 18.2231L28.7166 30.9396C29.0234 31.2465 29.4265 31.4 29.8281 31.4C30.2298 31.4 30.6327 31.2465 30.9396 30.9397L30.9396 30.9396C31.5535 30.3258 31.5535 29.3305 30.9396 28.7166C30.9396 28.7166 30.9396 28.7166 30.9396 28.7166L18.2231 16.0001L30.9396 3.28342C31.5535 2.66955 31.5535 1.67424 30.9396 1.0604L30.6576 1.34241L30.9396 1.0604C30.3258 0.446627 29.3305 0.44649 28.7166 1.06043Z" fill="white" stroke="white" stroke-width="0.8"/>
</svg>
