<svg width="24" height="24" viewBox="0 0 24 24" fill="none" xmlns="http://www.w3.org/2000/svg">
<path d="M10.9764 23.9809C10.7197 23.8744 10.438 23.8869 10.1687 23.8494C5.68563 23.217 1.67839 19.7795 0.501257 15.3653C-0.801098 10.5065 0.438644 6.3114 4.17039 2.92403C5.86721 1.38374 7.90214 0.482111 10.1813 0.143999C12.6107 -0.219158 14.9399 0.112692 17.1689 1.15833C17.3442 1.23973 17.3442 1.29608 17.2503 1.45262C16.956 1.93474 16.7932 2.46695 16.7243 3.04925C16.2047 2.7988 15.6912 2.56713 15.1528 2.39181C9.68662 0.594814 3.80097 3.74426 2.26069 9.28553C0.901982 14.1756 3.41277 19.3537 8.08372 21.3073C9.3172 21.8207 10.607 22.0774 11.9407 22.1025C12.2225 22.1087 12.5042 22.0774 12.7734 21.996C13.5499 21.7769 13.9694 21.0568 13.8692 20.1928C13.8128 19.7169 13.6062 19.3099 13.3871 18.8967C12.6795 17.5693 12.6169 16.2106 13.3182 14.8769C14.0821 13.4305 15.3218 12.6729 16.9685 12.6541C18.4149 12.6353 19.855 12.6479 21.3014 12.6479C21.8837 12.6479 22.1341 12.3974 22.1216 11.8214C22.084 10.375 21.7772 8.98499 21.1448 7.67637C21.0697 7.51984 21.0572 7.46349 21.2701 7.43844C21.7835 7.38209 22.2656 7.21303 22.7164 6.9438C22.8229 6.88118 22.873 6.87492 22.9356 7.01267C23.4302 8.12092 23.7621 9.26675 23.9123 10.4689C23.9374 10.6442 23.9061 10.8383 24 11.0011C24 11.4833 24 11.9716 24 12.4538C23.9249 12.4725 23.9436 12.5414 23.9374 12.5852C23.6494 13.7311 22.5912 14.545 21.3452 14.52C19.9114 14.4887 18.4713 14.5075 17.0374 14.5137C16.0231 14.52 15.1903 15.096 14.8647 16.0165C14.608 16.7553 14.7207 17.4566 15.1152 18.1203C15.566 18.8716 15.7789 19.6856 15.7601 20.5622C15.7351 22.1338 14.7082 23.4424 13.1867 23.8306C12.9801 23.8807 12.7609 23.8744 12.5668 23.9683C12.0409 23.9809 11.5087 23.9809 10.9764 23.9809Z" fill="#4A96EF"/>
<path d="M24 1.03312C23.8873 1.26479 23.9061 1.52776 23.8623 1.77195C23.6556 2.99291 23.161 4.06986 22.2719 4.95271C21.652 5.57258 20.9132 5.77294 20.0679 5.52249C19.9051 5.4724 19.8174 5.50996 19.711 5.62267C15.6975 9.64244 11.6777 13.6559 7.66421 17.6757C7.50142 17.8385 7.42628 17.8322 7.27601 17.6695C6.95668 17.3251 6.62483 16.9932 6.28046 16.6739C6.14897 16.5487 6.1615 16.4923 6.28672 16.3671C8.76621 13.9001 11.2332 11.4269 13.7064 8.95369C15.2592 7.40088 16.8057 5.84808 18.3648 4.30779C18.5401 4.13247 18.6215 3.98846 18.584 3.71296C18.4525 2.68611 19.0285 1.80326 20.0241 1.40254C20.7379 1.12078 21.4955 1.02686 22.2343 0.845279C22.8855 0.688745 23.4991 0.469599 24 0C24 0.350634 24 0.688745 24 1.03312Z" fill="#4A96EF"/>
<path d="M11.9094 3.93835C12.8987 3.93835 13.6939 4.72102 13.6939 5.70405C13.6939 6.70586 12.9112 7.49479 11.9094 7.49479C10.9201 7.49479 10.1374 6.70586 10.1374 5.71657C10.1312 4.72728 10.9201 3.93835 11.9094 3.93835Z" fill="#4A96EF"/>
<path d="M5.62928 7.71392C5.63554 6.79351 6.36186 6.07972 7.28227 6.08598C8.19642 6.09224 8.92274 6.82481 8.91022 7.74523C8.90395 8.64686 8.1526 9.37943 7.23844 9.36691C6.34307 9.36065 5.62302 8.62181 5.62928 7.71392Z" fill="#4A96EF"/>
<path d="M6.85025 12.3285C6.85025 13.1926 6.15524 13.8688 5.27865 13.8625C4.43338 13.8563 3.75089 13.1675 3.75715 12.3035C3.75715 11.4394 4.45216 10.7632 5.32875 10.7695C6.18029 10.7757 6.85651 11.4707 6.85025 12.3285Z" fill="#4A96EF"/>
</svg>
