<svg width="23" height="30" viewBox="0 0 23 30" fill="none" xmlns="http://www.w3.org/2000/svg">
<path d="M2.1493 29.7067C2.064 29.6059 1.92442 29.6136 1.81586 29.5671C1.00166 29.1871 0.582931 28.5513 0.536405 27.6595C0.528651 27.582 0.536405 27.5045 0.536405 27.4269C0.536405 20.6031 0.536405 13.7794 0.536405 6.94785C0.536405 5.76145 1.02493 5.07907 2.1493 4.70686C6.77085 3.17927 11.4002 1.65168 16.0217 0.131837C17.5183 -0.364437 18.8365 0.58934 18.8443 2.17121C18.852 3.20253 18.852 4.24161 18.8443 5.27293C18.8443 5.45903 18.883 5.52106 19.0769 5.51331C19.5887 5.50555 20.1082 5.46678 20.6122 5.53657C21.6203 5.6839 22.3104 6.53687 22.3259 7.59146C22.3337 8.16527 22.3259 8.73134 22.3259 9.30515C22.3259 15.3768 22.3259 21.4484 22.3259 27.52C22.3259 28.5435 21.7909 29.319 20.9069 29.6214C20.8216 29.6524 20.7053 29.5981 20.651 29.7144C14.4864 29.7067 8.3217 29.7067 2.1493 29.7067ZM2.31214 17.579C2.31214 20.8745 2.31214 24.1701 2.31214 27.4734C2.31214 27.9232 2.35866 27.9697 2.80841 27.9697C8.56209 27.9697 14.3158 27.9697 20.0694 27.9697C20.5114 27.9697 20.558 27.9232 20.558 27.4889C20.558 20.9056 20.558 14.3222 20.558 7.73103C20.558 7.29679 20.5114 7.25027 20.0694 7.25027C14.3158 7.25027 8.56209 7.25027 2.80841 7.25027C2.35866 7.25027 2.30438 7.29679 2.30438 7.74654C2.31214 11.0188 2.31214 14.2989 2.31214 17.579ZM5.42936 5.47454C5.49915 5.4978 5.5069 5.4978 5.51465 5.4978C9.3065 5.4978 13.0983 5.4978 16.8824 5.50555C17.0763 5.50555 17.0685 5.4125 17.0685 5.28068C17.0685 4.25711 17.0685 3.23355 17.0685 2.20223C17.0685 1.74473 16.9522 1.66718 16.5335 1.80676C14.6492 2.43486 12.7649 3.06296 10.8729 3.6833C9.08938 4.28038 7.29039 4.8697 5.42936 5.47454Z" fill="#4A96EF"/>
<path d="M11.4234 17.3308C9.53138 17.3308 7.63158 17.3308 5.73954 17.3308C5.22 17.3308 4.84004 17.0361 4.7625 16.6019C4.6772 16.1134 4.99513 15.6248 5.51466 15.5861C5.8481 15.5628 5.89462 15.4077 5.96441 15.1441C6.56149 12.9108 7.98828 11.4996 10.237 10.9568C10.5162 10.887 10.5705 10.7784 10.5627 10.5225C10.5472 10.0573 10.7643 9.7471 11.1675 9.61527C11.7026 9.44468 12.2686 9.83239 12.2919 10.3985C12.3152 10.8637 12.3152 10.8405 12.7494 10.9645C14.9904 11.6004 16.4017 13.0427 16.9367 15.3302C16.9755 15.4853 17.022 15.5473 17.1926 15.5551C17.7509 15.5783 18.1154 15.9505 18.0999 16.4701C18.0844 16.9663 17.6889 17.323 17.1228 17.323C15.2308 17.3308 13.3232 17.3308 11.4234 17.3308ZM7.68586 15.5395C10.1905 15.5395 12.6874 15.5395 15.1843 15.5395C14.7965 13.8181 13.2224 12.5852 11.4312 12.5852C9.6477 12.5852 8.06582 13.8258 7.68586 15.5395Z" fill="#4A96EF"/>
<path d="M11.4002 24.8913C9.5779 24.8913 7.74789 24.8913 5.92564 24.8913C5.36733 24.8913 4.97961 24.5346 4.97961 24.0306C4.97961 23.5188 5.35957 23.1544 5.91788 23.1544C9.60117 23.1544 13.2767 23.1544 16.96 23.1544C17.5105 23.1544 17.8982 23.5188 17.8905 24.0306C17.8827 24.5424 17.5028 24.8913 16.9367 24.8913C15.0912 24.8913 13.2457 24.8913 11.4002 24.8913Z" fill="#4A96EF"/>
<path d="M8.07359 21.4096C7.39121 21.4096 6.70108 21.4096 6.0187 21.4096C5.48366 21.4096 5.1037 21.0451 5.1037 20.5411C5.1037 20.0371 5.4759 19.6649 6.01095 19.6649C7.38346 19.6649 8.75597 19.6649 10.1207 19.6649C10.648 19.6649 11.0357 20.0448 11.028 20.5411C11.0202 21.0296 10.6403 21.4018 10.1285 21.4018C9.43834 21.4096 8.75597 21.4096 8.07359 21.4096Z" fill="#4A96EF"/>
</svg>
