<svg width="24" height="32" viewBox="0 0 24 32" fill="none" xmlns="http://www.w3.org/2000/svg">
<path d="M20.7274 0.00811377C21.4414 0.202844 21.7985 0.697785 22.0013 1.38746C22.4394 2.88039 22.91 4.36521 23.3806 5.85814C23.4861 6.19892 23.4861 6.51536 23.3563 6.85614C22.4962 9.18479 21.6605 11.5216 20.8086 13.8583C20.7437 14.0368 20.7356 14.1099 20.9627 14.1829C21.839 14.4587 22.4232 15.2782 22.4232 16.1951C22.4232 19.684 22.4313 23.1811 22.4232 26.67C22.4151 28.8039 20.7112 30.735 18.6097 31.0433C18.3501 31.0839 18.0905 31.1001 17.8227 31.1001C14.0092 31.1001 10.1958 31.1001 6.38228 31.1001C3.92381 31.1001 1.88725 29.1771 1.84668 26.7187C1.798 23.5137 1.83046 20.3007 1.83046 17.0957C1.83046 16.6576 1.77366 16.2194 1.86291 15.7894C2.02519 15.0105 2.48767 14.4669 3.24225 14.1991C3.45321 14.1261 3.46133 14.0531 3.39641 13.8664C2.31728 10.9211 1.25438 7.97584 0.175247 5.02243C-0.303466 3.69988 0.215816 2.55584 1.52213 2.07713C3.25037 1.44425 4.9786 0.819491 6.70683 0.186617C6.87722 0.121707 7.08007 0.121707 7.23423 0C7.39651 0 7.55878 0 7.72106 0C7.72917 0.0162275 7.73728 0.0486826 7.75351 0.0486826C8.72716 0.162275 9.29513 0.73024 9.61968 1.62275C10.3337 3.62686 11.072 5.63096 11.8023 7.63506C12.0538 8.31662 12.3053 8.99818 12.5569 9.68785C12.6705 9.63105 12.6623 9.53368 12.6948 9.46877C13.3926 7.56204 14.0904 5.6553 14.7719 3.74045C14.8936 3.39967 15.0802 3.14814 15.3886 2.95341C16.2405 2.4179 17.0844 1.85805 17.9363 1.32255C18.6584 0.868174 19.3238 0.340778 20.1108 0C20.3217 0.00811377 20.5246 0.00811377 20.7274 0.00811377ZM12.1268 15.9111C9.4574 15.9111 6.78797 15.9111 4.11854 15.9111C3.72908 15.9111 3.66417 15.976 3.66417 16.3655C3.66417 19.7246 3.66417 23.0837 3.66417 26.4428C3.66417 28.0818 4.84878 29.2664 6.48776 29.2664C10.2444 29.2664 13.993 29.2664 17.7497 29.2664C18.0093 29.2664 18.2771 29.242 18.5286 29.169C19.8106 28.8282 20.5976 27.7734 20.5976 26.386C20.5976 23.0593 20.5976 19.7327 20.5976 16.3979C20.5976 15.9679 20.5246 15.903 20.0783 15.903C17.4332 15.9111 14.78 15.9111 12.1268 15.9111ZM8.20788 14.0612C9.06794 14.0612 9.928 14.0612 10.7881 14.0612C10.8935 14.0612 11.0152 14.1017 11.072 13.9476C11.2424 13.477 11.4128 12.9983 11.5832 12.5277C11.64 12.3654 11.5508 12.2275 11.4696 12.1139C11.4047 12.0246 11.283 12.1382 11.1938 12.1707C10.6826 12.3492 10.1795 12.552 9.66025 12.7224C9.11663 12.909 8.60546 12.6737 8.43507 12.1625C8.26468 11.6757 8.52432 11.1889 9.05983 10.9942C9.57911 10.7994 10.0984 10.6047 10.6177 10.4262C10.8205 10.3613 10.8286 10.2802 10.7637 10.1016C10.6014 9.70407 10.4554 9.29838 10.3175 8.88458C10.2526 8.68985 10.1958 8.64117 9.9848 8.72231C9.1004 9.06309 8.216 9.37952 7.32348 9.69596C6.76363 9.8988 6.22812 9.67162 6.04962 9.16856C5.87112 8.6574 6.14698 8.17057 6.71495 7.95961C7.59124 7.64318 8.46752 7.31051 9.35192 7.00219C9.56288 6.92916 9.58722 6.85614 9.50609 6.66141C9.3357 6.25572 9.19776 5.8338 9.05983 5.41189C9.00303 5.23338 8.9219 5.21716 8.75962 5.28207C8.23222 5.48491 7.70483 5.67964 7.17743 5.86626C6.63381 6.05288 6.12264 5.80946 5.95225 5.30641C5.78186 4.81958 6.04151 4.32464 6.5689 4.12991C7.0963 3.93518 7.62369 3.73234 8.1592 3.55383C8.32959 3.49704 8.34582 3.42401 8.28902 3.27796C8.15109 2.92096 8.02127 2.56395 7.89145 2.20695C7.76163 1.85805 7.67237 1.81749 7.32348 1.93919C5.59525 2.57207 3.87513 3.19683 2.16312 3.82159C1.83046 3.94329 1.78177 4.03255 1.90348 4.36521C3.04752 7.52147 4.19968 10.6777 5.34372 13.834C5.41674 14.0287 5.51411 14.0693 5.69261 14.0693C6.52833 14.0612 7.37216 14.0612 8.20788 14.0612ZM13.9443 14.0612C14.1958 14.0612 14.4474 14.0531 14.6989 14.0612C14.8612 14.0693 14.9261 14.0125 14.9748 13.8583C15.2101 13.1768 15.4697 12.4952 15.7131 11.8218C16.4271 9.85824 17.1411 7.8947 17.8633 5.93117C17.9525 5.69587 17.9038 5.5985 17.6685 5.52548C17.2872 5.40377 16.9058 5.26584 16.5407 5.11168C16.3217 5.02243 16.2405 5.05488 16.1594 5.28207C15.5022 7.10767 14.8368 8.92515 14.1715 10.7508C13.7983 11.7731 13.4413 12.7954 13.0599 13.8096C12.9788 14.0287 13.0275 14.0693 13.2384 14.0612C13.4737 14.0531 13.709 14.0612 13.9443 14.0612ZM17.8146 14.0612C18.0661 14.0612 18.3176 14.0531 18.5692 14.0612C18.7314 14.0693 18.7964 14.0125 18.8532 13.8583C19.6726 11.5946 20.5003 9.33084 21.3279 7.0671C21.3765 6.92105 21.3441 6.86425 21.2062 6.81557C20.768 6.66952 20.3299 6.51536 19.8998 6.34497C19.7132 6.27195 19.6645 6.32874 19.6077 6.49913C19.4536 6.9535 19.2751 7.40788 19.1128 7.86225C18.3907 9.84201 17.6767 11.8299 16.9464 13.8096C16.8734 14.0044 16.8815 14.0855 17.1168 14.0693C17.3521 14.0531 17.5793 14.0612 17.8146 14.0612ZM17.774 3.61874C18.91 4.03255 19.9891 4.42201 21.0682 4.81958C21.0844 4.77901 21.1007 4.75467 21.0926 4.73844C20.8329 3.87838 20.5652 3.01021 20.3055 2.15015C20.265 2.02033 20.2082 2.04467 20.1351 2.09335C19.3643 2.58829 18.5854 3.09135 17.774 3.61874Z" fill="#4A96EF"/>
</svg>
