<svg width="28" height="31" viewBox="0 0 28 31" fill="none" xmlns="http://www.w3.org/2000/svg">
<path d="M7.45225 0C7.8973 0 8.34236 0 8.78741 0C8.86024 0.12947 8.98971 0.0485513 9.08681 0.0728269C10.8913 0.51788 12.1132 1.61028 12.5744 3.41477C13.0356 5.21926 12.5097 6.7729 11.1098 8.01096C10.4624 8.58549 9.67752 8.90916 8.82787 9.06291C9.79889 9.07909 10.7699 9.08718 11.7329 9.07909C12.3802 9.071 12.9628 9.25711 13.4726 9.64552C13.5859 9.73453 13.6506 9.75072 13.772 9.65361C14.2818 9.25711 14.8563 9.071 15.5118 9.07909C16.4666 9.09527 17.4134 9.07909 18.3682 9.07909C18.2549 9.01436 18.1497 8.99008 18.0283 8.95771C16.1429 8.52884 14.654 6.86192 14.5326 4.83895C14.3951 2.44375 16.0296 0.679718 17.8018 0.178021C17.9879 0.121378 18.1983 0.137562 18.352 0C18.7971 0 19.2421 0 19.6872 0C19.76 0.12947 19.8895 0.0485513 19.9866 0.0728269C21.7587 0.436962 23.2152 1.85304 23.5389 3.64944C23.8788 5.54294 23.2476 7.09658 21.694 8.25372C21.1113 8.69068 20.4478 8.92535 19.7357 9.06291C20.3912 9.05482 21.0223 9.12764 21.6616 9.2652C24.6637 9.92065 27.0832 12.7366 27.2531 15.8034C27.3664 17.9154 26.8161 19.8413 25.6023 21.5811C25.4891 21.7348 25.4405 21.8885 25.4405 22.0827C25.4486 24.7288 25.4405 27.3667 25.4405 30.0128C25.4405 30.6359 25.0764 31 24.4452 31C17.2434 31 10.0336 31 2.83178 31C2.18443 31 1.82839 30.644 1.82839 29.9885C1.82839 27.3587 1.82839 24.7207 1.82839 22.0908C1.82839 21.8885 1.77175 21.7348 1.65846 21.5649C0.379944 19.7118 -0.218855 17.6727 0.0724525 15.4312C0.412311 12.8014 1.84457 10.924 4.2074 9.75881C5.23507 9.24902 6.33557 9.03863 7.48462 9.06291C7.37133 9.01436 7.25804 8.99008 7.14476 8.95771C5.26744 8.54503 3.77044 6.88619 3.64097 4.84704C3.48723 2.3952 5.18652 0.639259 6.92628 0.161838C7.1043 0.121378 7.30659 0.137562 7.45225 0ZM14.1523 18.1663C14.5893 18.1663 15.0182 18.1582 15.4551 18.1663C16.588 18.1825 17.4134 18.7246 17.907 19.728C18.0283 19.9708 18.1497 19.995 18.3601 19.9789C20.3022 19.8332 21.7425 18.32 21.8072 16.3618C21.8234 15.8196 22.1957 15.4393 22.7135 15.4393C23.2395 15.4393 23.6198 15.8358 23.6198 16.3942C23.6279 18.7165 22.0581 20.8447 19.8166 21.5568C19.0236 21.8076 18.2145 21.8076 17.3972 21.7995C16.7903 21.7914 16.3614 22.1718 16.3533 22.6977C16.3452 23.2318 16.7822 23.6121 17.4053 23.6121C17.6561 23.6121 17.907 23.6202 18.1659 23.6121C20.4235 23.5555 22.317 22.7058 23.7655 20.958C25.0602 19.3881 25.6347 17.5594 25.3677 15.5283C25.0278 12.947 22.754 10.9564 20.116 10.9079C18.5867 10.8755 17.0492 10.8998 15.5118 10.8998C15.2933 10.8998 15.0829 10.9483 14.9049 11.1102C16.7094 11.8627 17.4538 13.4973 17.2353 15.0104C17.0007 16.6693 15.7222 17.9235 14.1523 18.1663ZM12.3721 11.1021C12.1455 10.9402 11.9271 10.8998 11.6924 10.8998C11.0046 10.8998 10.3168 10.8917 9.63706 10.8998C8.64985 10.9159 7.66264 10.8512 6.67543 10.9483C3.95656 11.2234 1.79602 13.6105 1.83648 16.3699C1.86885 18.6922 2.80751 20.5938 4.62009 22.0504C6.21419 23.3289 8.06723 23.7173 10.0578 23.604C10.5514 23.5797 10.9318 23.1266 10.9075 22.6735C10.8832 22.196 10.4948 21.8157 10.0012 21.7995C9.70988 21.7914 9.41858 21.7995 9.12727 21.7995C6.57833 21.7995 4.45016 20.1488 3.80281 17.6889C3.68952 17.26 3.63288 16.823 3.64097 16.378C3.64906 15.8358 4.02129 15.4474 4.53108 15.4393C5.04896 15.4312 5.43737 15.8115 5.45355 16.3456C5.51829 18.3119 6.89391 19.7766 8.85214 19.9708C9.10299 19.995 9.24055 19.9546 9.37812 19.6875C9.87172 18.6922 10.7052 18.1825 11.8219 18.1663C12.2103 18.1582 12.5987 18.1663 13.0437 18.1663C11.0936 17.4785 10.0983 16.3618 10.0012 14.8648C9.88791 13.206 10.7699 11.7656 12.3721 11.1021ZM11.2069 20.2459C12.2507 20.8528 12.801 21.7267 12.712 22.9162C12.6311 24.0005 12.0484 24.7693 11.0612 25.2143C10.9156 25.279 10.9075 25.368 10.9075 25.4894C10.9075 26.6385 10.9156 27.7875 10.9075 28.9366C10.9075 29.1308 10.956 29.1874 11.1583 29.1874C12.8091 29.1793 14.4679 29.1793 16.1187 29.1874C16.3129 29.1874 16.3695 29.1389 16.3695 28.9447C16.3614 27.8118 16.3614 26.687 16.3695 25.5542C16.3695 25.36 16.321 25.2629 16.1267 25.1819C14.9534 24.6479 14.3384 23.4017 14.6055 22.1394C14.7835 21.2817 15.3014 20.6748 16.062 20.2459C15.8678 20.0436 15.6412 19.9789 15.3985 19.9789C14.2252 19.9789 13.0599 19.9789 11.8866 19.9789C11.6277 19.9789 11.4011 20.0436 11.2069 20.2459ZM3.64097 23.6202C3.64097 25.449 3.64097 27.2292 3.63288 29.0013C3.63288 29.1955 3.72189 29.1793 3.85136 29.1793C5.52638 29.1793 7.2014 29.1793 8.87642 29.1793C9.05444 29.1793 9.08681 29.1227 9.08681 28.9608C9.07872 27.8523 9.07872 26.7437 9.08681 25.6351C9.08681 25.4571 9.03017 25.4166 8.86833 25.4247C8.17243 25.4328 7.48462 25.3195 6.81299 25.1415C5.67203 24.8583 4.63627 24.3485 3.64097 23.6202ZM23.6198 23.6283C22.0015 24.7935 20.2617 25.4085 18.3196 25.4328C18.1659 25.4328 18.1659 25.5056 18.1659 25.6189C18.1659 26.7518 18.1659 27.8765 18.1659 29.0094C18.1659 29.1551 18.2064 29.1955 18.352 29.1955C20.0432 29.1874 21.7425 29.1874 23.4337 29.1955C23.5794 29.1955 23.6198 29.1551 23.6198 29.0094C23.6198 27.2292 23.6198 25.449 23.6198 23.6283ZM10.8994 4.53145C10.8913 3.05064 9.65324 1.82067 8.18052 1.82067C6.69161 1.82067 5.44546 3.07492 5.45355 4.55573C5.46165 6.03654 6.6997 7.26651 8.17243 7.26651C9.66133 7.26651 10.9156 6.01227 10.8994 4.53145ZM21.7992 4.53145C21.7911 3.05064 20.5611 1.82067 19.0803 1.82067C17.5914 1.81258 16.3452 3.06682 16.3533 4.55573C16.3614 6.04464 17.6237 7.29079 19.1046 7.26651C20.5854 7.24223 21.8072 6.00418 21.7992 4.53145ZM13.6264 16.3456C14.6055 16.3456 15.4389 15.5202 15.447 14.5411C15.4551 13.562 14.6297 12.7285 13.6506 12.7123C12.6634 12.6962 11.8138 13.5458 11.8138 14.533C11.8138 15.5121 12.6472 16.3456 13.6264 16.3456Z" fill="#4A96EF"/>
</svg>
