<svg width="27" height="22" viewBox="0 0 27 22" fill="none" xmlns="http://www.w3.org/2000/svg">
<path d="M26.9934 12.1496C26.8746 12.4862 26.8944 12.8492 26.8482 13.1924C26.6832 14.4265 26.3862 15.6277 25.9638 16.7959C25.911 16.9411 25.9176 17.0467 25.9836 17.1853C26.208 17.6406 26.4918 18.063 26.6238 18.558C27.0066 20.0364 25.8648 21.4619 24.3403 21.4223C23.8651 21.4091 23.4295 21.2705 23.0533 21.0197C22.4329 20.6039 21.839 20.6369 21.1394 20.8217C18.0573 21.6269 14.9092 21.8909 11.7347 21.7193C9.48417 21.6005 7.26664 21.2441 5.08871 20.6435C4.91051 20.5973 4.75872 20.6105 4.59372 20.6897C4.08554 20.9405 3.61036 21.2573 3.04937 21.3827C1.82841 21.6665 0.482056 20.7029 0.323661 19.4556C0.257663 18.9474 0.35666 18.4854 0.574453 18.0366C0.746047 17.6736 1.04304 17.3239 1.07604 16.9543C1.10244 16.5913 0.858244 16.2151 0.739448 15.8389C0.152067 13.9448 -0.0723262 12.0044 0.0200708 10.0311C0.0992683 8.28874 0.435857 6.5992 1.03644 4.96245C1.08924 4.81726 1.08264 4.71166 1.01004 4.57306C0.805446 4.13748 0.521655 3.71509 0.396259 3.23331C0.145467 2.26974 0.429258 1.45796 1.18823 0.844184C1.95381 0.223804 2.79858 0.177605 3.67635 0.593392C4.01294 0.751787 4.35613 0.916781 4.68612 1.09498C4.82472 1.16757 4.94351 1.17417 5.08211 1.13457C6.79145 0.64619 8.5404 0.3294 10.3091 0.157806C12.0581 -0.0137888 13.8136 -0.0467877 15.5692 0.0654087C17.7471 0.210604 19.892 0.560393 22.004 1.13457C22.136 1.17417 22.2482 1.14777 22.3736 1.08838C22.9015 0.837584 23.3899 0.507594 23.9641 0.368999C25.1917 0.085208 26.538 1.04218 26.6898 2.28954C26.7558 2.83072 26.637 3.3125 26.406 3.78109C26.2476 4.11108 25.9902 4.42127 25.9374 4.76446C25.8846 5.10765 26.142 5.45084 26.241 5.80062C26.604 7.04798 26.8746 8.30854 26.9472 9.6087C26.9472 9.6483 26.9406 9.7011 27 9.7143C26.9934 10.5327 26.9934 11.3378 26.9934 12.1496ZM13.7476 19.9968C14.863 19.9836 16.2094 19.9044 17.5491 19.7262C19.0143 19.5282 20.4596 19.2312 21.872 18.8022C22.1756 18.7098 22.4527 18.7428 22.7299 18.888C23.1721 19.119 23.6209 19.3368 24.0697 19.5546C24.3667 19.6998 24.6043 19.6734 24.7759 19.4952C24.9475 19.3104 24.9673 19.086 24.8155 18.7956C24.5977 18.3732 24.3865 17.9574 24.1621 17.5416C24.0103 17.2579 23.9905 16.9741 24.1027 16.6837C24.6175 15.3835 24.9541 14.0438 25.1125 12.6578C25.2577 11.3576 25.2445 10.0641 25.0729 8.77713C24.9079 7.54297 24.5911 6.34841 24.1225 5.19344C23.9905 4.87005 24.0103 4.57306 24.1753 4.26287C24.3997 3.84049 24.6109 3.4049 24.8221 2.97591C24.9673 2.67892 24.9475 2.45453 24.7693 2.27634C24.5911 2.10474 24.3535 2.08494 24.0631 2.23014C23.6341 2.44793 23.2051 2.65913 22.7827 2.88352C22.5055 3.02871 22.2284 3.06171 21.9248 2.97591C19.8788 2.38193 17.7867 2.02555 15.6616 1.86715C13.5892 1.71536 11.5235 1.78795 9.46437 2.05854C7.99921 2.24334 6.55386 2.54033 5.13491 2.96932C4.83132 3.06171 4.55412 3.02871 4.27693 2.88352C3.83475 2.65253 3.38596 2.43473 2.93718 2.21034C2.65339 2.07174 2.40259 2.09154 2.231 2.26974C2.05941 2.44793 2.03961 2.67892 2.1914 2.96932C2.40259 3.3851 2.60719 3.79429 2.83158 4.20348C2.99658 4.50047 3.01637 4.79746 2.89098 5.10765C2.3102 6.5794 1.95381 8.10395 1.84161 9.6879C1.76241 10.8099 1.78881 11.9318 1.94721 13.0472C2.1188 14.2616 2.43559 15.4429 2.88438 16.5847C3.00977 16.9081 2.99658 17.2117 2.83158 17.5152C2.60719 17.9376 2.39599 18.3732 2.1848 18.8022C2.03961 19.0926 2.066 19.3302 2.2376 19.5018C2.41579 19.6734 2.65339 19.6932 2.94378 19.548C3.35956 19.3368 3.77535 19.1388 4.17794 18.9144C4.48813 18.7428 4.78512 18.723 5.13491 18.8154C7.87382 19.5942 10.6655 19.9836 13.7476 19.9968Z" fill="#4A96EF"/>
<path d="M13.5232 7.0414C14.2756 6.11083 15.2194 5.60924 16.4073 5.62904C18.1497 5.66204 19.6346 6.9886 19.9382 8.73094C20.189 10.1763 19.7468 11.4039 18.7965 12.4796C17.8593 13.5356 16.7373 14.3804 15.6616 15.2779C15.1864 15.6739 14.7046 16.0699 14.2228 16.4725C13.7212 16.8883 13.345 16.8949 12.8435 16.4791C11.5169 15.3637 10.1244 14.321 8.86379 13.1198C8.16421 12.4532 7.55043 11.7206 7.23364 10.7703C6.56706 8.79034 7.56363 6.57941 9.46437 5.85344C10.8239 5.33865 12.3749 5.72804 13.3384 6.8302C13.3912 6.8896 13.4506 6.9556 13.5232 7.0414ZM8.81759 9.31172C8.80439 10.2621 9.17398 10.8693 9.67556 11.3973C10.8107 12.605 12.1571 13.562 13.4176 14.6312C13.543 14.7367 13.5958 14.651 13.675 14.585C14.4472 13.9514 15.2194 13.3178 15.9916 12.6776C16.6119 12.1628 17.2257 11.6348 17.7075 10.9749C18.2883 10.1829 18.4071 9.33152 17.9781 8.43395C17.4633 7.34499 16.0246 7.0546 15.193 7.84657C14.8234 8.19636 14.5726 8.61875 14.3944 9.09393C14.2162 9.56912 13.9258 9.80011 13.5166 9.78691C13.0679 9.77371 12.7973 9.51632 12.6521 9.10713C12.5531 8.82994 12.4211 8.55935 12.2561 8.31516C11.6885 7.47038 10.8437 7.16679 9.95936 7.56938C9.15418 7.93897 8.86379 8.65175 8.81759 9.31172Z" fill="#4A96EF"/>
</svg>
