<svg width="34" height="34" viewBox="0 0 34 34" fill="none" xmlns="http://www.w3.org/2000/svg">
<path d="M8.42682 13.5087C8.42682 12.2337 8.42682 10.9587 8.42682 9.67367C8.42682 8.90064 8.91875 8.40871 9.69178 8.40871C10.8563 8.40871 12.0209 8.40871 13.1855 8.40871C13.9183 8.40871 14.4404 8.91068 14.4404 9.60339C14.4404 10.3061 13.9284 10.8081 13.1955 10.8182C12.4928 10.8182 11.79 10.8282 11.0973 10.8182C10.8865 10.8182 10.8262 10.8784 10.8262 11.0892C10.8363 13.0469 10.8061 14.9945 10.8363 16.9522C10.8965 20.1548 13.4565 22.7349 16.6591 22.8453C19.7412 22.9557 22.4518 20.6065 22.7831 17.5345C22.9236 16.2494 22.8233 14.9544 22.8433 13.6693C22.8534 12.8059 22.8433 11.9426 22.8534 11.0792C22.8534 10.8784 22.8032 10.8282 22.6024 10.8282C21.8996 10.8382 21.1969 10.8382 20.5042 10.8282C19.7713 10.8282 19.2492 10.3262 19.2492 9.63351C19.2492 8.93076 19.7613 8.42879 20.4841 8.41875C21.6587 8.41875 22.8333 8.41875 24.0179 8.41875C24.7609 8.41875 25.2628 8.92072 25.2628 9.66363C25.2628 12.1333 25.2729 14.593 25.2628 17.0626C25.2427 20.9077 22.2109 24.4717 18.416 25.0841C18.1248 25.1343 18.0244 25.2347 18.0445 25.5359C18.1349 26.9213 18.5565 28.1862 19.4902 29.2303C20.0424 29.8427 20.8053 30.1038 21.6085 30.1238C23.6364 30.1841 25.3632 29.411 26.839 28.0658C28.7666 26.3089 29.8809 24.0801 30.5837 21.6205C31.166 19.5725 31.4571 17.4743 31.176 15.3559C30.4732 9.8845 27.6421 5.89887 22.6024 3.64002C18.5766 1.83293 14.5107 2.0036 10.515 3.88096C9.78213 4.2223 9.1095 4.04159 8.7782 3.40911C8.45694 2.79671 8.69788 2.07388 9.3404 1.76266C10.7861 1.03982 12.302 0.517777 13.8983 0.256753C17.3618 -0.31549 20.725 0.0459269 23.9075 1.57191C28.7967 3.91108 31.9992 7.71599 33.204 13.0067C34.4187 18.2975 33.3847 23.2469 30.3528 27.7445C28.9171 29.8729 26.9796 31.4189 24.4597 32.1217C22.9638 32.5433 21.4278 32.6939 19.9118 32.2421C17.8437 31.6197 16.6992 30.1038 16.1069 28.116C15.8459 27.2526 15.7054 26.3691 15.6552 25.4656C15.6451 25.2046 15.5246 25.1644 15.3339 25.1242C12.7939 24.6323 10.8664 23.277 9.56127 21.0583C8.79827 19.7733 8.42682 18.3778 8.43686 16.8819C8.43686 15.7374 8.42682 14.6231 8.42682 13.5087Z" fill="#4A96EF"/>
<path d="M10.8564 28.7484C10.8564 31.3286 8.96898 33.4167 6.53946 33.6476C4.05974 33.8886 1.77077 32.202 1.30896 29.7524C1.04793 28.3469 1.35915 27.0418 2.24262 25.9073C2.41328 25.6864 2.43336 25.5459 2.29281 25.2949C0.596161 22.3735 -0.176869 19.201 0.0339573 15.8278C0.294981 11.7016 1.8812 8.1276 4.73238 5.12584C5.21426 4.61383 5.94714 4.59375 6.4491 5.05556C6.96111 5.52741 6.98119 6.26028 6.47922 6.79237C4.68218 8.68981 3.4373 10.8884 2.83494 13.4384C1.95147 17.1831 2.4936 20.717 4.37096 24.0601C4.46131 24.2207 4.54163 24.2709 4.75245 24.2207C7.61367 23.4778 10.2841 25.2045 10.8062 28.0959C10.8564 28.3469 10.8463 28.5979 10.8564 28.7484ZM8.42686 28.8488C8.42686 27.5538 7.34261 26.4595 6.03749 26.4494C4.73238 26.4394 3.61801 27.5437 3.61801 28.8589C3.61801 30.154 4.7123 31.2482 6.00737 31.2583C7.31249 31.2583 8.42686 30.164 8.42686 28.8488Z" fill="#4A96EF"/>
</svg>
