<svg width="30" height="30" viewBox="0 0 30 30" fill="none" xmlns="http://www.w3.org/2000/svg">
<path d="M14.768 29.9962C10.962 29.9962 7.16471 29.9962 3.35871 29.9962C2.29858 29.9962 1.47308 29.3966 1.30798 28.4669C1.21239 27.902 1.16895 27.3285 1.09943 26.7637C0.93433 25.2952 0.760539 23.818 0.595439 22.3494C0.430338 20.907 0.273926 19.4732 0.117515 18.0307C0.065378 17.5528 -0.0649648 17.0749 0.0393094 16.5796C0.2131 15.7628 0.890882 15.1285 1.72508 15.0763C2.04659 15.0589 2.14217 14.9199 2.14217 14.6071C2.13348 10.0625 2.13348 5.52653 2.13348 0.981915C2.14217 0.243307 2.38548 0 3.1154 0C9.7455 0 16.3756 0 23.0144 0C23.7443 0 23.9876 0.243307 23.9876 0.973226C23.9876 1.79873 23.9963 2.62423 23.9789 3.44105C23.9702 3.75387 24.0919 3.86684 24.396 3.86684C24.8913 3.86684 25.3866 3.82339 25.8819 3.92766C26.9768 4.16228 27.8631 5.03992 27.8284 6.36073C27.7936 7.73367 27.8284 9.1153 27.8197 10.4882C27.8197 10.8011 27.8979 10.9488 28.2542 10.9749C29.3751 11.0704 30.1224 12.0611 29.9834 13.182C29.7835 14.8243 29.6184 16.4666 29.4359 18.1176C29.2535 19.76 29.0536 21.4023 28.8711 23.0446C28.6886 24.6782 28.4975 26.3119 28.3411 27.9455C28.2368 28.9709 27.7762 29.6486 26.916 29.9006C26.664 29.9788 26.4033 29.9875 26.1426 29.9875C22.354 29.9962 18.5654 29.9962 14.768 29.9962ZM14.7767 28.519C18.5914 28.519 22.4061 28.519 26.2121 28.519C26.7248 28.519 26.8117 28.4669 26.8812 27.9455C27.0203 26.7985 27.1332 25.6428 27.2636 24.4957C27.4026 23.2184 27.5503 21.941 27.698 20.6637C27.8371 19.395 27.9848 18.1263 28.1238 16.8577C28.2629 15.5977 28.4106 14.3464 28.5409 13.0864C28.5931 12.5477 28.4888 12.4521 27.95 12.4521C24.6828 12.4521 21.4068 12.4608 18.1396 12.4434C17.3228 12.4347 16.8101 12.7823 16.5146 13.5122C16.3148 13.9988 16.141 14.5028 15.9237 14.9807C15.4893 15.9713 14.7072 16.484 13.6297 16.484C9.79764 16.5014 5.95687 16.4927 2.12479 16.5014C1.56866 16.5014 1.43832 16.623 1.49915 17.1705C1.61211 18.248 1.74245 19.3168 1.86411 20.3943C2.00314 21.663 2.14217 22.9316 2.2812 24.2003C2.42024 25.4603 2.55058 26.7116 2.6983 27.9716C2.75913 28.4669 2.84602 28.519 3.34133 28.519C7.14733 28.519 10.962 28.519 14.7767 28.519ZM13.091 1.41639C10.1018 1.41639 7.11258 1.41639 4.12338 1.41639C3.68022 1.41639 3.56725 1.51198 3.56725 1.89431C3.56725 6.12611 3.56725 10.3666 3.56725 14.5984C3.56725 14.946 3.66284 15.0416 4.01042 15.0416C4.89675 15.0416 5.78308 15.0416 6.6781 15.0416C7.08651 15.0416 7.14733 14.9807 7.14733 14.581C7.14733 13.2254 7.15602 11.8699 7.13865 10.523C7.12996 10.0972 7.26899 9.7844 7.57312 9.48895C9.37185 7.74236 11.1532 5.99577 12.9346 4.2318C13.1865 3.98849 13.4559 3.88421 13.8035 3.88421C16.5407 3.8929 19.2866 3.8929 22.0238 3.8929C22.493 3.8929 22.5365 3.84077 22.5365 3.37153C22.5365 2.91968 22.5365 2.45913 22.5365 2.00728C22.5365 1.48591 22.4756 1.42508 21.963 1.42508C19.0085 1.41639 16.0541 1.41639 13.091 1.41639ZM19.9296 5.32667C18.1743 5.32667 16.4191 5.32667 14.6638 5.32667C14.264 5.32667 14.2206 5.37012 14.2206 5.77853C14.2206 6.717 14.2293 7.66415 14.2206 8.60262C14.2032 10.019 13.23 11.0444 11.8223 11.1052C10.9012 11.14 9.98012 11.1139 9.05903 11.1226C8.65931 11.1226 8.5811 11.2008 8.5811 11.5918C8.5811 12.565 8.5811 13.5383 8.5811 14.5202C8.5811 14.972 8.65062 15.0502 9.10248 15.0502C10.4667 15.0502 11.831 15.0416 13.1952 15.0589C13.986 15.0676 14.516 14.7287 14.8115 14.0075C14.994 13.5556 15.1591 13.1038 15.3415 12.6519C15.6804 11.8351 16.2453 11.2616 17.1316 11.0704C17.4618 11.0009 17.792 10.9749 18.1309 10.9749C20.7377 10.9749 23.3533 10.9749 25.9601 10.9749C26.3599 10.9749 26.4033 10.9314 26.4033 10.5578C26.4033 9.15006 26.4033 7.74236 26.4033 6.33466C26.4033 5.8046 26.1166 5.46571 25.5865 5.37881C25.4127 5.35274 25.2389 5.33536 25.0738 5.33536C23.3533 5.32667 21.6414 5.32667 19.9296 5.32667ZM10.9968 9.72357C11.2227 9.72357 11.4486 9.72357 11.6746 9.72357C12.2915 9.71488 12.726 9.33254 12.7695 8.71559C12.8042 8.19421 12.7781 7.68153 12.7781 7.16016C12.7781 7.01244 12.7173 6.8821 12.5696 6.82127C12.4219 6.76913 12.3263 6.85603 12.2307 6.95161C11.4921 7.68153 10.7535 8.40276 10.0062 9.13268C9.89322 9.24565 9.79764 9.3673 9.87584 9.5324C9.94536 9.6975 10.1018 9.72357 10.2495 9.72357C10.5015 9.72357 10.7448 9.72357 10.9968 9.72357Z" fill="#4A96EF"/>
<path d="M19.6429 26.4422C18.409 26.4422 17.1751 26.4422 15.9411 26.4422C14.9853 26.4422 14.3075 25.7644 14.2988 24.8173C14.2988 24.1047 14.2988 23.3922 14.2988 22.671C14.3075 21.7672 14.9853 21.0547 15.889 21.0547C18.3916 21.046 20.8942 21.046 23.3881 21.0547C24.1875 21.0547 24.8479 21.5848 24.9522 22.3755C25.0738 23.3053 25.0738 24.2524 24.9435 25.1909C24.8392 25.9382 24.1788 26.4422 23.4315 26.4422C22.1802 26.4422 20.9116 26.4422 19.6429 26.4422ZM19.6255 25.0171C20.8247 25.0171 22.0238 25.0084 23.2317 25.0258C23.4837 25.0258 23.5792 24.9563 23.5792 24.6956C23.5705 24.0787 23.5705 23.4617 23.5792 22.8447C23.5792 22.6014 23.501 22.5319 23.2577 22.5319C20.8594 22.5406 18.4524 22.5406 16.0541 22.5319C15.7847 22.5319 15.7239 22.6275 15.7326 22.8708C15.75 23.4791 15.75 24.0873 15.7326 24.6869C15.7239 24.9476 15.8108 25.0258 16.0628 25.0258C17.2446 25.0084 18.435 25.0171 19.6255 25.0171Z" fill="#4A96EF"/>
<path d="M8.02499 4.24048C7.32982 4.24048 6.63466 4.24917 5.94819 4.24048C5.32255 4.23179 4.95759 3.69304 5.23565 3.18905C5.39206 2.9023 5.65275 2.79802 5.96557 2.79802C7.33851 2.79802 8.72015 2.78933 10.0931 2.79802C10.5884 2.79802 10.9186 3.11084 10.9186 3.52794C10.9186 3.93635 10.5971 4.23179 10.1105 4.24048C9.41531 4.24917 8.72015 4.24048 8.02499 4.24048Z" fill="#4A96EF"/>
<path d="M20.5292 7.39479C21.5893 7.39479 22.6494 7.3861 23.7095 7.39479C24.2657 7.40348 24.6046 7.8814 24.4134 8.40278C24.2917 8.72429 24.0397 8.87201 23.7095 8.87201C21.5806 8.87201 19.4517 8.8807 17.3141 8.87201C16.8361 8.87201 16.5494 8.57657 16.5494 8.1334C16.5494 7.67286 16.8361 7.39479 17.3401 7.39479C18.4089 7.39479 19.4691 7.39479 20.5292 7.39479Z" fill="#4A96EF"/>
</svg>
