<svg width="31" height="29" viewBox="0 0 31 29" fill="none" xmlns="http://www.w3.org/2000/svg">
<path d="M0 7.75825C0.0950002 7.31492 0.16625 6.86367 0.300834 6.42825C1.32209 3.03991 3.54667 0.894491 7.01418 0.189907C10.0938 -0.427595 12.7696 0.474907 14.9942 2.69158C15.1367 2.83408 15.2 2.82616 15.3346 2.69158C17.1396 0.846991 19.3484 -0.0396772 21.9134 0.00782288C26.03 0.0869897 29.5926 3.222 30.2101 7.29117C30.6613 10.252 29.7984 12.7933 27.7242 14.9308C27.6371 15.0258 27.5421 15.1129 27.455 15.1999C27.1305 15.5008 26.9167 15.8016 26.8534 16.3083C26.703 17.6304 25.5946 18.6595 24.2646 18.8416C24.0667 18.8733 23.9717 18.9287 23.94 19.1504C23.75 20.5912 22.6417 21.6441 21.185 21.7866C21.0505 21.8024 21.0346 21.842 21.0188 21.9608C20.8842 23.3779 19.8234 24.4941 18.3984 24.7C18.2084 24.7237 18.1213 24.7712 18.1134 25.0008C18.0817 25.5945 17.8284 26.117 17.4484 26.5762C17.0842 27.0195 16.6804 27.4233 16.245 27.7954C14.6379 29.1808 12.1046 28.5158 11.3842 26.5208C11.3288 26.3625 11.305 26.2912 11.0992 26.3308C9.3496 26.6316 7.74251 25.452 7.52876 23.7262C7.50501 23.5441 7.41001 23.5679 7.29126 23.552C5.90584 23.3937 4.86084 22.4912 4.53626 21.1691C4.48084 20.9474 4.45709 20.7179 4.45709 20.4962C4.45709 20.3458 4.40959 20.2824 4.27501 20.2587C2.89751 20.0449 1.71792 18.6912 1.83667 16.997C1.88417 16.3241 2.1375 15.7383 2.59667 15.2474C2.7075 15.1287 2.74709 15.0654 2.60459 14.9229C1.15584 13.4899 0.308751 11.7562 0.0554168 9.72951C0.0475001 9.68992 0.0395834 9.65034 0 9.64242C0 9.02492 0 8.39159 0 7.75825ZM1.95542 9.04867C1.98709 10.5766 2.64417 12.2153 3.99001 13.5612C4.14834 13.7195 4.25917 13.767 4.48876 13.6562C6.43626 12.7616 8.74793 14.2341 8.76377 16.3795C8.76377 16.5933 8.8271 16.6645 9.02502 16.7041C10.1967 16.9416 11.2021 17.9866 11.3604 19.1662C11.3921 19.4037 11.4634 19.467 11.685 19.4908C12.8171 19.6095 13.6404 20.2033 14.1234 21.2087C14.2975 21.5649 14.4163 21.6995 14.8438 21.6441C15.7621 21.5254 16.5617 21.8658 17.2425 22.4912C17.7017 22.9187 18.3667 22.887 18.7784 22.4516C19.2059 22.0004 19.1821 21.3512 18.6992 20.8683C17.3296 19.4987 15.9679 18.1291 14.5904 16.7674C14.4559 16.6329 14.44 16.5616 14.5904 16.427C14.9467 16.0945 15.2871 15.7541 15.6117 15.3979C15.7779 15.2158 15.865 15.2554 16.0154 15.4058C17.3613 16.7674 18.723 18.1133 20.0767 19.4749C20.3934 19.7916 20.7655 19.942 21.2009 19.8154C22.04 19.5858 22.2855 18.5883 21.6521 17.9629C20.2905 16.5933 18.9209 15.2237 17.5434 13.862C17.3771 13.6958 17.385 13.6166 17.5513 13.4583C17.8996 13.1337 18.2321 12.8012 18.5567 12.4528C18.7071 12.2866 18.7863 12.3024 18.9367 12.4608C20.2984 13.8383 21.668 15.1999 23.0375 16.5695C23.5046 17.0366 24.1855 17.0445 24.6209 16.6091C25.0563 16.1737 25.0563 15.5008 24.605 15.0495C22.713 13.1495 20.805 11.2495 18.913 9.34951C18.8021 9.23867 18.7309 9.23076 18.5884 9.30201C16.7517 10.2837 14.7567 10.0066 13.2684 8.54992C12.6825 7.97992 12.1125 7.38617 11.5267 6.81617C11.3921 6.6895 11.4 6.62617 11.5267 6.4995C12.2075 5.82658 12.8725 5.13783 13.5692 4.47283C13.7592 4.29075 13.7513 4.18783 13.5692 4.01366C11.8909 2.39074 9.91168 1.70991 7.60001 2.06616C4.33834 2.57283 1.95542 5.38325 1.95542 9.04867ZM28.413 8.72409C28.4209 7.52867 28.0726 6.28575 27.3759 5.20908C26.1805 3.3645 24.5021 2.22449 22.3013 1.97116C20.4725 1.75741 18.8417 2.33533 17.4088 3.47533C16.435 4.25116 15.6275 5.20117 14.7329 6.06408C14.535 6.25408 14.1788 6.452 14.2104 6.65784C14.2421 6.88742 14.5667 7.07742 14.7804 7.26742C15.5167 7.93242 16.5934 8.09075 17.48 7.67117C17.9471 7.4495 18.2875 7.07742 18.628 6.71325C18.8021 6.53117 18.8892 6.52325 19.0792 6.71325C21.3592 9.00909 23.655 11.297 25.943 13.5849C26.0459 13.6878 26.1092 13.8066 26.2834 13.6324C27.5738 12.247 28.3813 10.6558 28.413 8.72409ZM4.88459 18.3745C5.09834 18.3824 5.30418 18.3191 5.46251 18.1924C5.89001 17.8599 6.28585 17.4799 6.61043 17.0445C6.9271 16.6249 6.8321 16.0233 6.44418 15.6512C6.06418 15.287 5.44668 15.2395 5.04293 15.5958C4.67876 15.9124 4.33834 16.2608 4.02167 16.6249C3.73667 16.9574 3.68917 17.3533 3.89501 17.757C4.10084 18.1449 4.43334 18.3666 4.88459 18.3745ZM16.1817 24.6525C16.1659 24.2012 15.96 23.8608 15.5484 23.6708C15.1288 23.4808 14.7329 23.5362 14.3925 23.8291C14.0917 24.0983 13.8146 24.3912 13.5296 24.6841C13.0784 25.1433 13.0546 25.8083 13.4821 26.2437C13.9254 26.7029 14.5825 26.7029 15.0654 26.2437C15.3346 25.9825 15.5959 25.7133 15.865 25.452C16.0709 25.2304 16.1896 24.9691 16.1817 24.6525ZM8.22543 18.5883C8.07502 18.5804 7.82168 18.6754 7.61585 18.8733C7.3071 19.1662 7.00626 19.4591 6.71335 19.7758C6.32543 20.1954 6.33334 20.8366 6.70543 21.2483C7.08543 21.6599 7.69501 21.7391 8.14627 21.3829C8.55002 21.0662 8.91418 20.702 9.23085 20.2983C9.50002 19.9579 9.50002 19.562 9.31002 19.182C9.12002 18.802 8.80335 18.6041 8.22543 18.5883ZM9.46835 23.3145C9.46043 23.7737 9.69002 24.1616 10.0938 24.3279C10.5134 24.502 10.9329 24.4625 11.2813 24.1458C11.5979 23.8608 11.8988 23.5599 12.1838 23.2512C12.5875 22.8079 12.5717 22.1429 12.16 21.7312C11.7484 21.3195 11.0834 21.3037 10.64 21.7154C10.3392 22.0004 10.0542 22.3012 9.76127 22.5941C9.55544 22.7999 9.46043 23.0374 9.46835 23.3145Z" fill="#4A96EF"/>
</svg>
