<svg width="16" height="21" viewBox="0 0 16 21" fill="none" xmlns="http://www.w3.org/2000/svg">
<path d="M8.39785 0C8.6317 0.0780096 8.88115 0.072809 9.1202 0.114414C12.1967 0.634478 14.7171 3.10998 15.3407 6.17836C16.089 9.83961 14.1298 13.5165 10.674 14.9258C10.5649 14.9726 10.5025 15.0298 10.4558 15.1339C9.70742 16.8553 8.9487 18.5767 8.20038 20.2981C8.11203 20.5009 8.0029 20.6621 7.75346 20.6621C7.50402 20.6621 7.39489 20.5009 7.30654 20.2929C6.55822 18.5715 5.80469 16.8501 5.05117 15.1287C5.00959 15.035 4.95763 14.9674 4.85369 14.9206C2.21896 13.7869 0.592386 11.8107 0.119485 8.99191C-0.322236 6.36038 0.467665 4.0565 2.37486 2.17387C3.64286 0.925714 5.19148 0.223627 6.96356 0.0416051C6.98954 0.0364045 7.01553 0.0312038 7.02592 0C7.48323 0 7.94054 0 8.39785 0ZM3.46097 7.72295C3.4142 10.058 5.33179 12.0083 7.71189 12.0447C10.0712 12.0811 11.9888 10.1933 12.0407 7.78016C12.0927 5.46067 10.1959 3.50523 7.83661 3.45322C5.42013 3.40122 3.46617 5.35146 3.46097 7.72295Z" fill="white"/>
</svg>
