<svg width="26" height="26" viewBox="0 0 26 26" fill="none" xmlns="http://www.w3.org/2000/svg">
<path d="M25.9925 12.9964C25.9925 15.8547 25.9708 18.7203 25.9997 21.5786C26.0215 23.5614 24.6538 25.4645 22.5336 25.9132C22.2876 25.9638 22.0415 26 21.781 26C15.9269 26 10.0728 26 4.21872 26C2.18534 26 0.332866 24.3718 0.0506536 22.3529C0.0144724 22.1213 0 21.8898 0 21.651C0 15.8837 0 10.1236 0 4.35625C0.00723622 1.91762 1.92483 0 4.36344 0C10.1307 0 15.8907 0 21.658 0C24.0749 0 25.9997 1.91762 25.9997 4.33454C25.9925 7.22182 25.9925 10.1091 25.9925 12.9964ZM19.0602 12.128C20.7101 12.128 22.3599 12.128 24.0098 12.1353C24.1979 12.1353 24.2703 12.1136 24.2703 11.8965C24.2631 9.41442 24.2703 6.93237 24.2631 4.45032C24.2631 2.85834 23.1342 1.73671 21.535 1.73671C19.0602 1.73671 16.5927 1.73671 14.1179 1.72947C13.8935 1.72947 13.8646 1.80184 13.8646 1.99722C13.8718 5.28249 13.8718 8.56777 13.8646 11.853C13.8646 12.1063 13.9442 12.1353 14.1613 12.1353C15.7894 12.128 17.4248 12.128 19.0602 12.128ZM6.95401 13.8647C5.30415 13.8647 3.65429 13.8647 2.00443 13.8575C1.80906 13.8575 1.73669 13.8864 1.73669 14.1108C1.74393 16.5856 1.74393 19.0532 1.74393 21.528C1.74393 23.1344 2.87278 24.2561 4.48646 24.2561C6.94677 24.2561 9.41432 24.2561 11.8746 24.2633C12.0773 24.2633 12.1424 24.2271 12.1424 24.0028C12.1351 20.7103 12.1351 17.4178 12.1424 14.1252C12.1424 13.9226 12.1062 13.8575 11.8819 13.8575C10.2393 13.8647 8.59663 13.8647 6.95401 13.8647ZM12.1351 6.95408C12.1351 5.3042 12.1351 3.65433 12.1351 1.99722C12.1351 1.80907 12.1134 1.72224 11.8819 1.72224C9.39985 1.72947 6.91783 1.72224 4.4358 1.72947C2.87278 1.73671 1.74393 2.86557 1.74393 4.44308C1.73669 6.92513 1.74393 9.40718 1.73669 11.8892C1.73669 12.1063 1.80182 12.1353 1.98996 12.1353C5.28968 12.128 8.59663 12.128 11.8963 12.1353C12.1062 12.1353 12.1424 12.0701 12.1424 11.882C12.1351 10.2394 12.1351 8.59672 12.1351 6.95408ZM13.8646 19.0604C13.8646 20.7103 13.8718 22.3601 13.8574 24.0173C13.8574 24.2126 13.9008 24.2705 14.1034 24.2705C16.5854 24.2633 19.0674 24.2705 21.5495 24.2633C23.127 24.2633 24.2558 23.1344 24.2558 21.5569C24.2631 19.0749 24.2558 16.5928 24.2631 14.1108C24.2631 13.9082 24.2124 13.8647 24.017 13.8647C20.7173 13.872 17.4103 13.872 14.1106 13.8647C13.908 13.8647 13.8574 13.9082 13.8574 14.1108C13.8718 15.7534 13.8646 17.4105 13.8646 19.0604Z" fill="#4A96EF"/>
<path d="M19.0459 7.80052C18.1992 7.80052 17.3526 7.80052 16.506 7.80052C15.9777 7.80052 15.6014 7.4387 15.6014 6.94664C15.6014 6.43286 15.9705 6.07104 16.5132 6.07104C18.2137 6.07104 19.9215 6.07104 21.622 6.07104C22.1502 6.07104 22.5265 6.43286 22.5265 6.92493C22.5265 7.4387 22.1502 7.80052 21.6147 7.80052C20.7609 7.80052 19.8998 7.80052 19.0459 7.80052Z" fill="#4A96EF"/>
<path d="M9.64592 20.8987C9.63868 21.2677 9.46501 21.5427 9.13215 21.6874C8.79204 21.8394 8.45918 21.796 8.1842 21.5282C7.80792 21.1664 7.43887 20.7974 7.07706 20.4211C6.96852 20.3125 6.91063 20.3125 6.80208 20.4211C6.46198 20.7757 6.11464 21.1158 5.77454 21.4559C5.36931 21.8539 4.84107 21.8683 4.47926 21.4993C4.12468 21.1375 4.14639 20.6237 4.53715 20.2257C4.86278 19.8928 5.18841 19.5527 5.53574 19.2343C5.70218 19.0824 5.67323 19.0028 5.52851 18.8653C5.18841 18.5469 4.86278 18.2068 4.52991 17.8739C4.14639 17.4832 4.13192 16.9621 4.49373 16.6003C4.85554 16.2457 5.37655 16.2602 5.7673 16.6437C6.12188 16.9911 6.47645 17.3384 6.81656 17.7002C6.91063 17.8015 6.96852 17.8088 7.06982 17.7002C7.41716 17.3457 7.7645 16.9911 8.11908 16.6437C8.50983 16.253 9.03084 16.2385 9.39265 16.5931C9.75446 16.9477 9.73999 17.4687 9.35647 17.8667C9.03084 18.1995 8.70521 18.5397 8.35787 18.858C8.1842 19.0172 8.20591 19.1041 8.36511 19.2488C8.70521 19.5672 9.03084 19.9073 9.36371 20.2402C9.53738 20.4283 9.65315 20.6382 9.64592 20.8987Z" fill="#4A96EF"/>
<path d="M7.80056 5.10861C7.80056 5.35465 7.81503 5.60068 7.79333 5.83948C7.77885 6.0421 7.85122 6.07104 8.03212 6.07104C8.53142 6.05657 9.02348 6.06381 9.52278 6.06381C10.0221 6.06381 10.3984 6.44009 10.3984 6.93216C10.3984 7.42423 10.0293 7.79328 9.52278 7.80052C9.03796 7.80052 8.54589 7.81499 8.06107 7.79328C7.82227 7.78604 7.78609 7.86564 7.79333 8.0755C7.8078 8.55309 7.80056 9.03068 7.80056 9.50828C7.80056 10.0293 7.43151 10.3983 6.91774 10.3983C6.43292 10.3911 6.0711 10.0148 6.06387 9.50828C6.06387 9.03068 6.0494 8.55309 6.0711 8.0755C6.07834 7.85841 6.04216 7.77881 5.80336 7.79328C5.31854 7.81499 4.82647 7.80052 4.34165 7.80052C3.84235 7.80052 3.46606 7.42423 3.46606 6.93216C3.46606 6.44009 3.83511 6.07104 4.34165 6.06381C4.81924 6.06381 5.29683 6.0421 5.77442 6.07104C6.03492 6.08551 6.07834 5.99144 6.0711 5.75988C6.05663 5.28952 6.06387 4.81916 6.06387 4.3488C6.06387 3.82779 6.43292 3.45874 6.93945 3.45874C7.42428 3.45874 7.78609 3.83503 7.79333 4.34157C7.8078 4.60207 7.80056 4.85534 7.80056 5.10861Z" fill="#4A96EF"/>
<path d="M19.0601 16.4629C19.914 16.4629 20.7751 16.4629 21.629 16.4629C22.15 16.4629 22.5263 16.8247 22.5263 17.324C22.5263 17.8233 22.15 18.1924 21.629 18.1924C19.914 18.1924 18.2063 18.1924 16.4913 18.1924C15.9703 18.1924 15.594 17.8305 15.594 17.3312C15.594 16.8247 15.963 16.4629 16.4913 16.4629C17.3524 16.4629 18.2063 16.4629 19.0601 16.4629Z" fill="#4A96EF"/>
<path d="M19.0386 21.6581C18.192 21.6581 17.3454 21.6581 16.4987 21.6581C15.9777 21.6581 15.6014 21.2963 15.6014 20.7897C15.6014 20.2832 15.9705 19.9214 16.4987 19.9214C18.2137 19.9214 19.9215 19.9214 21.6364 19.9214C22.1575 19.9214 22.5337 20.2904 22.5337 20.7897C22.5337 21.289 22.1575 21.6581 21.6364 21.6581C20.7681 21.6581 19.8998 21.6581 19.0386 21.6581Z" fill="#4A96EF"/>
</svg>
