<svg width="20" height="20" viewBox="0 0 20 20" fill="none" xmlns="http://www.w3.org/2000/svg">
<path d="M14.6858 19.9935C13.6173 20.0128 12.6896 19.6851 11.7811 19.3318C6.1062 17.141 2.30584 13.1384 0.373677 7.36271C0.143352 6.68812 -0.0229932 5.99427 0.0025984 5.27471C0.0793733 3.19955 1.04546 1.65764 2.81768 0.623278C3.43827 0.257074 4.11645 0.00651387 4.84581 8.92411e-05C5.65195 -0.00633539 6.31733 0.33417 6.74599 1.00876C7.36659 1.99172 7.96799 2.99396 8.51821 4.0219C9.1708 5.22973 8.78692 6.77807 7.66729 7.60042C7.30261 7.87026 6.91874 8.11439 6.53486 8.36495C6.4261 8.43562 6.39411 8.49344 6.46448 8.62194C7.57772 10.7678 9.19639 12.3996 11.3397 13.5175C11.474 13.5882 11.5252 13.5561 11.602 13.4468C11.8323 13.0935 12.0627 12.7337 12.3058 12.3932C13.1823 11.1661 14.7306 10.7935 16.0422 11.5259C17.0146 12.072 17.9743 12.6502 18.9148 13.2412C19.7977 13.7938 20.1624 14.8153 19.8425 15.9139C19.2027 18.1304 17.7312 19.4796 15.4727 19.9421C15.204 19.9871 14.9097 20.0128 14.6858 19.9935ZM14.609 18.4452C16.3556 18.4645 17.9935 17.1667 18.3774 15.4449C18.4862 14.963 18.371 14.6932 17.9487 14.4426C17.1106 13.9351 16.2661 13.434 15.428 12.9329C14.705 12.5024 13.9884 12.6695 13.515 13.3633C13.1759 13.8644 12.8432 14.372 12.5041 14.8731C12.1906 15.3421 11.8643 15.4449 11.3589 15.22C8.31348 13.8452 6.1062 11.6351 4.76264 8.57054C4.55791 8.10154 4.66027 7.76746 5.08254 7.47835C5.60716 7.125 6.13179 6.78449 6.65642 6.43114C7.30901 5.98784 7.48175 5.26828 7.08508 4.58727C6.57325 3.7071 6.04862 2.82692 5.53039 1.95318C5.42802 1.77329 5.28087 1.65122 5.08254 1.58055C4.84581 1.49703 4.62828 1.57412 4.40436 1.63194C2.58095 2.12664 1.37175 3.90626 1.58288 5.77583C1.64686 6.32835 1.826 6.84874 2.01154 7.36271C3.87333 12.4831 7.35379 16.0038 12.4465 17.9248C13.1375 18.1882 13.8477 18.4323 14.609 18.4452Z" fill="white"/>
<path d="M17.3089 3.52726C17.0018 3.21888 16.6947 2.9105 16.3876 2.60211C16.2789 2.4929 16.1701 2.3901 16.1125 2.24234C15.9718 1.90183 16.0677 1.52278 16.3492 1.31719C16.6627 1.09233 17.0658 1.09233 17.3345 1.35574C18.1598 2.17166 18.9788 2.99402 19.7913 3.82279C20.0856 4.12475 20.0664 4.60017 19.7657 4.90856C18.9724 5.71806 18.1726 6.52114 17.3665 7.32421C17.0658 7.62617 16.586 7.61975 16.2853 7.33706C15.991 7.0608 15.959 6.57896 16.2533 6.25773C16.5284 5.94935 16.8355 5.66666 17.1234 5.37113C17.181 5.31331 17.2449 5.24906 17.3153 5.17839C17.213 5.11414 17.1298 5.13984 17.0466 5.13984C15.3768 5.13342 13.7133 5.13984 12.0434 5.13342C11.4164 5.13342 11.039 4.54878 11.3141 4.00911C11.4676 3.70715 11.7235 3.58508 12.0562 3.58508C13.3806 3.59151 14.705 3.58508 16.0293 3.59151C16.4452 3.59151 16.8611 3.59151 17.2705 3.59793C17.2833 3.55938 17.2961 3.54654 17.3089 3.52726Z" fill="white"/>
</svg>
