<svg width="20" height="12" viewBox="0 0 20 12" fill="none" xmlns="http://www.w3.org/2000/svg">
<path opacity="1" d="M20 11.1167C20 11.2426 20 11.3658 20 11.4917C19.9922 11.4998 19.9687 11.5105 20 11.5185C20 11.5453 20 11.5721 20 11.5989C19.9948 11.5935 19.987 11.5828 19.9844 11.5855C19.9766 11.5882 19.9687 11.5935 19.9661 11.6016C19.8776 11.8239 19.7004 11.923 19.4868 11.9685C19.3905 11.99 19.2889 11.998 19.1899 11.998C18.4605 12.0007 17.7312 12.0007 17.0018 11.998C16.7413 11.998 16.5069 11.9203 16.2959 11.7623C16.1058 11.6203 15.939 11.4489 15.7802 11.2748C15.3556 10.8033 14.9388 10.3239 14.4881 9.87656C13.9984 9.39442 13.4983 8.92567 12.8966 8.59085C12.6648 8.4596 12.4199 8.38192 12.1516 8.40335C11.8651 8.42478 11.7583 8.5212 11.7166 8.81317C11.6723 9.11853 11.6775 9.42656 11.6801 9.7346C11.6827 10.2033 11.6905 10.6721 11.6905 11.1408C11.6905 11.5935 11.5421 11.7891 11.1149 11.9016C10.9951 11.9337 10.87 11.9578 10.745 11.9685C9.85152 12.0542 8.9789 11.9471 8.12972 11.6578C6.43136 11.0819 5.06121 10.0158 3.94634 8.60424C2.96171 7.35871 2.13076 6.00603 1.40922 4.58103C0.828341 3.4346 0.315186 2.25871 0.0468872 0.983705C0.0416775 0.962277 0.0468872 0.91942 0 0.93817C0 0.75067 0 0.56317 0 0.37567C0.00520969 0.381027 0.0104194 0.386384 0.0182339 0.389062C0.0208388 0.389062 0.0260484 0.383705 0.0286533 0.381027C0.143266 0.0837054 0.393332 0.0113839 0.661631 0.00602679C1.44569 0.000669643 2.23235 0.00334821 3.01641 0.00870536C3.36285 0.0113839 3.62073 0.180134 3.77182 0.504241C3.83954 0.651563 3.90206 0.804241 3.95676 0.959598C4.44387 2.36049 5.056 3.69978 5.83225 4.95871C6.16827 5.50246 6.52774 6.02746 6.99401 6.46406C7.10602 6.56853 7.22844 6.66496 7.36911 6.72388C7.64001 6.83906 7.8484 6.73192 7.90831 6.43996C7.92915 6.34353 7.93957 6.24442 7.94217 6.14799C7.94478 4.99621 7.94999 3.84442 7.94478 2.69263C7.94217 2.09531 7.76765 1.55424 7.38474 1.09085C7.30138 0.989062 7.21542 0.887277 7.1529 0.76942C6.99401 0.46942 7.12946 0.129241 7.44725 0.0328125C7.53061 0.00602679 7.61657 0.000669643 7.70513 0.000669643C8.76009 0.000669643 9.81506 0.000669643 10.87 0.000669643C10.9534 0.000669643 11.0341 -0.00200893 11.1175 0.00334821C11.4535 0.0167411 11.6332 0.190848 11.6723 0.536384C11.6879 0.672991 11.6931 0.812277 11.6931 0.951563C11.6931 2.3471 11.6931 3.74531 11.6931 5.14085C11.6931 5.30692 11.701 5.47031 11.7791 5.62299C11.8625 5.78371 11.9641 5.83996 12.1412 5.81585C12.3392 5.78906 12.4928 5.66853 12.6413 5.54531C12.9513 5.29085 13.217 4.99085 13.4618 4.66942C14.397 3.44531 15.1263 2.09531 15.7333 0.67567C15.9234 0.214955 16.249 0.000669643 16.7309 0.00334821C17.4394 0.00602679 18.1453 0.00334821 18.8539 0.00334821C18.8929 0.00334821 18.932 0.00334821 18.9711 0.00602679C19.4973 0.0328125 19.6796 0.297991 19.5442 0.822991C19.4504 1.17924 19.3019 1.50871 19.1352 1.83281C18.4683 3.12388 17.6687 4.32656 16.8586 5.52388C16.7205 5.72746 16.5694 5.92567 16.4574 6.14799C16.361 6.34085 16.3688 6.52299 16.473 6.70513C16.559 6.85246 16.671 6.97567 16.7882 7.09621C17.5436 7.87835 18.3016 8.65781 18.9763 9.51496C19.3644 10.0078 19.7551 10.498 19.9583 11.1114C19.9635 11.1221 19.9792 11.1542 20 11.1167Z" fill="white"/>
</svg>
