<svg width="17" height="17" viewBox="0 0 17 17" fill="none" xmlns="http://www.w3.org/2000/svg">
<path opacity="1" d="M16.9541 7.54836C16.8897 6.89045 16.761 6.24218 16.5227 5.62278C15.341 2.56433 13.1419 0.712576 9.906 0.0931842C9.36185 -0.00951293 8.81127 0.00332421 8.26068 0.000114922C7.73907 -0.00309436 7.22713 0.0610914 6.72162 0.170207C2.98021 0.988575 0.207962 4.22995 0.0566314 8.08752C0.0534116 8.09073 0.0501918 8.09393 0.0501918 8.09714C0.0501918 8.10677 0.0534116 8.11319 0.0566314 8.12282C0.0566314 8.1838 0.0534116 8.24798 0.0534116 8.30896C0.014774 8.39561 0.014774 8.48547 0.0534116 8.57212C0.0534116 8.62347 0.0534116 8.67482 0.0566314 8.72616C0.0534116 8.72937 0.0501918 8.73258 0.0501918 8.73579C0.0501918 8.74542 0.0566314 8.75184 0.0566314 8.76147C0.0501918 9.19472 0.114588 9.62155 0.198303 10.042C0.372172 10.9021 0.661954 11.7268 1.09341 12.4939C1.15458 12.5998 1.16424 12.6961 1.13204 12.8116C0.758548 14.1627 0.391491 15.5138 0.0179938 16.8649C-0.017424 16.9965 -0.0109844 17.0222 0.133907 16.9837C1.52164 16.6146 2.91259 16.2519 4.30033 15.8861C4.41624 15.8572 4.50961 15.87 4.61909 15.9278C5.68806 16.4926 6.83431 16.7911 8.0353 16.8745C8.64384 16.9163 9.25238 16.881 9.85448 16.7783C11.6093 16.483 13.1419 15.7352 14.4169 14.4933C16.0751 12.8758 16.9284 10.8989 16.996 8.58496C17.0089 8.23835 16.9896 7.89175 16.9541 7.54836ZM12.8779 10.8443C12.8135 11.7782 12.543 12.1922 11.5578 12.6094C11.3066 12.7153 11.0361 12.7538 10.7592 12.7474C10.2441 12.7538 9.77721 12.5741 9.30712 12.3912C8.41523 12.0414 7.57164 11.6113 6.85363 10.963C6.11307 10.2955 5.49487 9.52848 4.96039 8.69086C4.64485 8.19984 4.3615 7.69598 4.20695 7.12794C3.93005 6.10097 4.19407 5.23446 4.96039 4.50274C5.23729 4.23958 5.91989 4.19465 6.20001 4.39042C6.3127 4.46744 6.39964 4.56372 6.44793 4.6953C6.66044 5.26334 6.87295 5.8346 7.08545 6.40264C7.13053 6.52138 7.11443 6.6305 7.0597 6.73962C6.95988 6.93217 6.80855 7.08301 6.66366 7.24026C6.27084 7.66389 6.26763 7.72487 6.56385 8.2191C7.17239 9.23323 8.0192 9.98741 9.06563 10.5266C9.13647 10.5619 9.21052 10.594 9.28458 10.6229C9.4842 10.6967 9.65485 10.671 9.80296 10.4977C10.0058 10.257 10.2376 10.0388 10.4212 9.78202C10.5693 9.57662 10.7174 9.5349 10.9653 9.65044C11.4257 9.86546 11.8701 10.1126 12.3176 10.3469C12.4496 10.4175 12.5817 10.4913 12.7104 10.5619C12.8264 10.6196 12.8875 10.7095 12.8779 10.8443Z" fill="white"/>
</svg>
