<svg width="131" height="26" viewBox="0 0 131 26" fill="none" xmlns="http://www.w3.org/2000/svg">
<path d="M0.45 0.499998H9.48C11.79 0.499998 13.715 1.27 15.255 2.81C16.8183 4.35 17.6 6.26333 17.6 8.55C17.6 10.8133 16.8183 12.7267 15.255 14.29C13.715 15.83 11.79 16.6 9.48 16.6H4.475V25H0.45V0.499998ZM4.475 12.82H9.48C10.67 12.82 11.65 12.4233 12.42 11.63C13.19 10.8133 13.575 9.78667 13.575 8.55C13.575 7.31333 13.19 6.29833 12.42 5.505C11.65 4.68833 10.67 4.28 9.48 4.28H4.475V12.82ZM33.4791 9.985V7.5H37.2591V25H33.4791V22.48C32.0557 24.4633 30.0141 25.455 27.3541 25.455C24.9507 25.455 22.8974 24.5683 21.1941 22.795C19.4907 21.0217 18.6391 18.84 18.6391 16.25C18.6391 13.66 19.4907 11.4783 21.1941 9.705C22.8974 7.93167 24.9507 7.045 27.3541 7.045C30.0141 7.045 32.0557 8.025 33.4791 9.985ZM23.9941 20.275C25.0441 21.325 26.3624 21.85 27.9491 21.85C29.5357 21.85 30.8541 21.325 31.9041 20.275C32.9541 19.2017 33.4791 17.86 33.4791 16.25C33.4791 14.64 32.9541 13.31 31.9041 12.26C30.8541 11.1867 29.5357 10.65 27.9491 10.65C26.3624 10.65 25.0441 11.1867 23.9941 12.26C22.9441 13.31 22.4191 14.64 22.4191 16.25C22.4191 17.8367 22.9441 19.1783 23.9941 20.275ZM49.925 25.455C47.2883 25.455 45.0833 24.5683 43.31 22.795C41.56 20.9983 40.685 18.8167 40.685 16.25C40.685 13.6367 41.56 11.455 43.31 9.705C45.0833 7.93167 47.2883 7.045 49.925 7.045C51.6283 7.045 53.18 7.45333 54.58 8.27C55.98 9.08667 57.03 10.1833 57.73 11.56L54.475 13.45C54.0783 12.61 53.4716 11.9567 52.655 11.49C51.8616 11 50.94 10.755 49.89 10.755C48.35 10.755 47.055 11.28 46.005 12.33C44.9783 13.4033 44.465 14.71 44.465 16.25C44.465 17.79 44.9783 19.0967 46.005 20.17C47.055 21.22 48.35 21.745 49.89 21.745C50.9166 21.745 51.8383 21.5117 52.655 21.045C53.495 20.555 54.125 19.89 54.545 19.05L57.8 20.905C57.0533 22.305 55.9683 23.4133 54.545 24.23C53.145 25.0467 51.605 25.455 49.925 25.455ZM68.5187 25.455C65.882 25.455 63.677 24.5683 61.9037 22.795C60.1537 20.9983 59.2787 18.8167 59.2787 16.25C59.2787 13.6367 60.1537 11.455 61.9037 9.705C63.677 7.93167 65.882 7.045 68.5187 7.045C70.222 7.045 71.7737 7.45333 73.1737 8.27C74.5737 9.08667 75.6237 10.1833 76.3237 11.56L73.0687 13.45C72.672 12.61 72.0654 11.9567 71.2487 11.49C70.4554 11 69.5337 10.755 68.4837 10.755C66.9437 10.755 65.6487 11.28 64.5987 12.33C63.572 13.4033 63.0587 14.71 63.0587 16.25C63.0587 17.79 63.572 19.0967 64.5987 20.17C65.6487 21.22 66.9437 21.745 68.4837 21.745C69.5104 21.745 70.432 21.5117 71.2487 21.045C72.0887 20.555 72.7187 19.89 73.1387 19.05L76.3937 20.905C75.647 22.305 74.562 23.4133 73.1387 24.23C71.7387 25.0467 70.1987 25.455 68.5187 25.455ZM91.3384 16.005C93.0651 16.8217 93.9284 18.1633 93.9284 20.03C93.9284 21.5233 93.4151 22.725 92.3884 23.635C91.3851 24.545 89.9851 25 88.1884 25H79.2284V7.5H87.4884C89.2618 7.5 90.6501 7.94333 91.6534 8.83C92.6568 9.71667 93.1584 10.8833 93.1584 12.33C93.1584 13.9867 92.5518 15.2117 91.3384 16.005ZM87.2084 10.72H82.8334V14.605H87.2084C88.7484 14.605 89.5184 13.9517 89.5184 12.645C89.5184 11.3617 88.7484 10.72 87.2084 10.72ZM82.8334 21.71H87.8384C89.4251 21.71 90.2184 21.0217 90.2184 19.645C90.2184 19.0383 90.0084 18.5717 89.5884 18.245C89.1684 17.895 88.5851 17.72 87.8384 17.72H82.8334V21.71ZM113.907 17.86H99.9769C100.257 19.1667 100.887 20.1817 101.867 20.905C102.87 21.6283 104.107 21.99 105.577 21.99C107.56 21.99 109.065 21.2667 110.092 19.82L113.207 21.64C111.504 24.1833 108.949 25.455 105.542 25.455C102.719 25.455 100.42 24.5917 98.6469 22.865C96.8969 21.115 96.0219 18.91 96.0219 16.25C96.0219 13.66 96.8852 11.4783 98.6119 9.705C100.315 7.93167 102.532 7.045 105.262 7.045C107.805 7.045 109.905 7.94333 111.562 9.74C113.219 11.5367 114.047 13.7183 114.047 16.285C114.047 16.7517 114 17.2767 113.907 17.86ZM99.9419 14.78H110.232C109.975 13.4033 109.392 12.3417 108.482 11.595C107.595 10.8483 106.51 10.475 105.227 10.475C103.827 10.475 102.66 10.86 101.727 11.63C100.794 12.4 100.199 13.45 99.9419 14.78ZM114.834 7.5H130.059V11.14H124.354V25H120.574V11.14H114.834V7.5Z" fill="#4A96EF"/>
</svg>
