<svg width="23" height="21" viewBox="0 0 23 21" fill="none" xmlns="http://www.w3.org/2000/svg">
<path d="M22.9023 7.86345C23.0847 8.28058 23.013 8.60433 22.6353 8.95298C21.6325 9.8931 20.6297 10.827 19.6269 11.7671C19.0212 12.3274 18.4222 12.894 17.8231 13.4605C17.784 13.4481 17.7449 13.4356 17.7124 13.4232C16.5728 12.8504 15.4397 12.2714 14.3001 11.6986C13.5252 11.3126 12.7503 10.9266 11.9754 10.5406C11.8582 10.4783 11.7605 10.3725 11.6042 10.3849C11.6042 10.3787 11.5977 10.3725 11.5977 10.3725C11.5977 10.3725 11.5912 10.3725 11.5847 10.3663C11.5912 10.3725 11.5977 10.3787 11.6042 10.3849C11.5977 10.4659 11.6628 10.5095 11.7019 10.5655C12.3921 11.5928 13.0824 12.62 13.7792 13.6473C14.8797 15.2661 15.9867 16.8848 17.0937 18.5098C17.6082 19.2631 18.1096 20.0164 18.624 20.7698C18.2659 21.0499 17.8882 21.0437 17.491 20.8445C15.596 19.8919 13.7075 18.9393 11.8126 17.9868C11.7149 17.937 11.6107 17.8872 11.5065 17.8374C11.5065 15.4217 11.5065 13.0123 11.5065 10.5966C11.5065 10.5095 11.5456 10.4098 11.4609 10.3351C11.4284 10.2729 11.3763 10.2542 11.3047 10.2417C9.78087 9.918 8.25709 9.59425 6.73331 9.26428C4.99463 8.89072 3.26247 8.51717 1.52379 8.14984C1.05494 8.05022 0.586082 7.92571 0.104202 7.86967C0.240952 7.5397 0.501428 7.36538 0.85307 7.31557C3.00851 7.01672 5.16394 6.71788 7.31938 6.41904C7.41706 6.40658 7.50822 6.38791 7.6059 6.37546C7.97708 6.78014 8.39384 7.15369 8.77804 7.55215C9.60505 8.41133 10.4711 9.2456 11.3177 10.0799C11.3698 10.1297 11.4023 10.2168 11.513 10.1982C11.513 6.79882 11.513 3.39947 11.513 0.00634766C11.9689 0.00634766 12.2489 0.236706 12.4377 0.610261C13.0368 1.78073 13.6424 2.94498 14.2415 4.10922C14.6322 4.86878 15.0229 5.62212 15.4137 6.38168C14.6583 7.14747 13.8964 7.90703 13.141 8.66659C12.6722 9.13976 12.1968 9.60048 11.7214 10.0736C11.6823 10.1172 11.5912 10.1546 11.6433 10.2231C11.6823 10.2791 11.7605 10.2355 11.8256 10.2231C13.2322 9.918 14.6387 9.61915 16.0453 9.32031C17.9338 8.91563 19.8157 8.51094 21.7041 8.11248C22.1014 8.01287 22.4921 7.89458 22.9023 7.86345Z" fill="#FAB848"/>
<path d="M11.4544 10.3352C11.5391 10.4099 11.5 10.5095 11.5 10.5967C11.5 13.0123 11.5 15.4218 11.5 17.8374C10.0609 18.5659 8.62175 19.2881 7.18262 20.0165C6.60958 20.3029 6.03653 20.5955 5.46348 20.8757C5.0858 21.0625 4.71462 21.05 4.38902 20.7636C4.62996 20.3963 4.87741 20.0352 5.12487 19.6678C6.10816 18.211 7.09146 16.7603 8.08126 15.3097C9.11666 13.7844 10.1586 12.2652 11.2005 10.7399C11.2786 10.6216 11.3698 10.5158 11.4088 10.3788C11.4219 10.3663 11.4414 10.3477 11.4544 10.3352Z" fill="#FFD346"/>
<path d="M0.104202 7.86353C0.586082 7.91956 1.04843 8.04408 1.52379 8.14369C3.26247 8.51102 4.99463 8.88457 6.73331 9.25813C8.25709 9.58188 9.78087 9.91185 11.3047 10.2356C11.3763 10.248 11.4284 10.2667 11.4609 10.329C11.4414 10.3477 11.4284 10.3601 11.4088 10.3788C11.2786 10.3663 11.1744 10.4411 11.0702 10.4971C10.3669 10.852 9.67668 11.2131 8.9734 11.5679C7.7166 12.203 6.4533 12.8256 5.18999 13.4606C3.58806 11.9726 1.98614 10.4784 0.384213 8.99041C-0.0065001 8.61686 -0.0976666 8.26821 0.104202 7.86353Z" fill="#FFD346"/>
<path d="M18.6175 20.7699C18.1096 20.0165 17.6016 19.2632 17.0872 18.5099C15.9867 16.8911 14.8797 15.2724 13.7727 13.6474C13.0759 12.6201 12.3856 11.5929 11.6954 10.5656C11.6563 10.5096 11.5912 10.4598 11.5977 10.385C11.754 10.3726 11.8516 10.4784 11.9689 10.5407C12.7438 10.9267 13.5187 11.3127 14.2936 11.6987C15.4332 12.2715 16.5663 12.8505 17.7058 13.4233C17.7384 13.442 17.784 13.4482 17.8165 13.4606C17.9858 14.4319 18.1617 15.4094 18.331 16.3806C18.5459 17.5822 18.7673 18.7838 18.9691 19.9854C19.0343 20.2967 18.904 20.5769 18.6175 20.7699Z" fill="#FFD346"/>
<path d="M5.18999 13.4543C6.4533 12.8255 7.71661 12.1967 8.9734 11.5616C9.67669 11.2067 10.3735 10.8456 11.0702 10.4908C11.1744 10.4347 11.2786 10.3662 11.4088 10.3725C11.3698 10.5094 11.2786 10.6215 11.2005 10.7336C10.1651 12.2589 9.11666 13.778 8.08127 15.3034C7.09146 16.754 6.10817 18.2109 5.12487 19.6615C4.87742 20.0226 4.63648 20.39 4.38903 20.7573C4.0439 20.5145 3.9918 20.1721 4.05692 19.7985C4.42159 17.7626 4.78625 15.733 5.15092 13.6971C5.17046 13.6286 5.17697 13.5415 5.18999 13.4543Z" fill="#FAB848"/>
<path d="M11.5065 0.000187212C11.5065 3.39954 11.5065 6.79266 11.5065 10.192C11.3958 10.2107 11.3633 10.1235 11.3112 10.0737C10.4581 9.23322 9.59853 8.39894 8.77152 7.54599C8.38732 7.14753 7.97707 6.78021 7.59938 6.3693C8.53709 4.55133 9.47481 2.73959 10.406 0.921622C10.4907 0.759749 10.5623 0.597875 10.66 0.448453C10.8553 0.149609 11.1288 -0.0184905 11.5065 0.000187212Z" fill="#FFD346"/>
<path d="M22.9023 7.86336C22.4921 7.89449 22.0949 8.01278 21.6976 8.09994C19.8092 8.4984 17.9207 8.90931 16.0388 9.30777C14.6322 9.60661 13.2257 9.91168 11.8191 10.2105C11.754 10.223 11.6823 10.2666 11.6368 10.2105C11.5912 10.142 11.6758 10.1047 11.7149 10.0611C12.1838 9.59416 12.6591 9.12722 13.1345 8.65405C13.8964 7.89449 14.6518 7.1287 15.4071 6.36914C16.0583 6.4563 16.703 6.53724 17.3542 6.6244C18.4156 6.7676 19.4771 6.92325 20.545 7.07267C21.105 7.15361 21.6651 7.21586 22.2251 7.31548C22.5442 7.37151 22.7981 7.53961 22.9023 7.86336Z" fill="#FFD347"/>
<path d="M11.6042 10.3849C11.5977 10.3787 11.5912 10.3724 11.5847 10.3662C11.5912 10.3662 11.5977 10.3662 11.5977 10.3724C11.5977 10.3724 11.5977 10.3787 11.6042 10.3849Z" fill="#FFD346"/>
<path d="M11.4088 10.385C11.4284 10.3663 11.4414 10.3539 11.4609 10.3352C11.4414 10.3477 11.4219 10.3663 11.4088 10.385Z" fill="#FAB848"/>
</svg>
