<svg width="49" height="49" viewBox="0 0 49 49" fill="none" xmlns="http://www.w3.org/2000/svg">
<path d="M0.220065 25.6106C0.220065 23.0743 0.220065 20.538 0.220065 18.0607C0.220065 9.86185 5.58763 2.90172 13.4915 0.7193C23.047 -1.93499 33.2512 4.0814 35.4926 13.7548C35.6696 14.5806 35.8465 15.4654 35.9055 16.2911C35.9055 16.5861 36.0235 16.704 36.3184 16.763C43.1606 18.5325 47.2895 22.8974 48.7641 29.7985C49 30.7423 49 31.745 49 32.7477C49 37.5254 49 42.3032 49 47.0219C49 48.2606 48.3512 48.9094 47.1125 48.9094C42.2758 48.9094 37.4981 48.9094 32.6614 48.9094C25.0524 48.8504 18.5642 43.6598 16.8536 36.2868C16.7356 35.8739 16.5587 35.9329 16.2638 35.9329C11.545 35.9329 6.8263 35.9329 2.04858 35.9329C0.750923 35.9329 0.102097 35.343 0.102097 34.0454C0.220065 31.1552 0.220065 28.3829 0.220065 25.6106ZM45.8149 38.0563C45.7559 36.0508 45.9328 33.5735 45.6969 31.1552C45.225 26.0235 41.3321 21.4817 36.3774 20.0661C35.9645 19.9482 35.9055 20.1251 35.8465 20.42C35.6106 22.4845 34.9618 24.431 33.959 26.2595C31.0688 31.568 26.645 34.7532 20.6286 35.638C20.0977 35.6969 20.1567 35.9329 20.2747 36.3458C21.9263 41.7723 26.9399 45.6063 32.6614 45.6063C36.9082 45.6063 41.1551 45.6063 45.402 45.6063C45.7559 45.6063 45.8149 45.4883 45.8149 45.1344C45.7559 42.952 45.8149 40.7106 45.8149 38.0563ZM8.35989 17.1169C8.35989 19.7122 9.48059 22.2485 11.486 23.9001C14.4942 26.4954 18.6821 26.7903 22.0442 24.7259C22.2802 24.5489 22.4571 24.5489 22.693 24.7849C22.929 25.0798 23.2239 25.3747 23.5778 25.6696C24.2266 26.2595 25.2294 26.2595 25.8192 25.6106C26.4091 25.0208 26.468 24.0181 25.8782 23.3692C25.6423 23.0743 25.3473 22.7794 25.0524 22.5435C24.7575 22.3075 24.7575 22.1306 24.9934 21.8356C26.1731 19.9482 26.586 17.8837 26.2321 15.6423C25.4653 11.1005 21.2774 7.85639 16.7356 8.21029C11.9579 8.5642 8.35989 12.4572 8.35989 17.1169Z" fill="white"/>
<path d="M36.0824 35.8148C37.616 35.8148 39.2086 35.8148 40.7422 35.8148C41.8039 35.8148 42.5707 36.4636 42.5707 37.4663C42.5707 38.4101 41.8039 39.0589 40.7422 39.0589C37.616 39.0589 34.4899 39.0589 31.3637 39.0589C30.302 39.0589 29.5352 38.4101 29.5352 37.4073C29.5352 36.4636 30.302 35.8148 31.3637 35.8148C32.8973 35.8148 34.4899 35.8148 36.0824 35.8148Z" fill="white"/>
<path d="M39.3266 29.3269C39.8575 29.3269 40.3883 29.3269 40.9192 29.3269C41.8629 29.3269 42.5707 30.0937 42.5707 30.9784C42.5707 31.8632 41.8629 32.571 40.9192 32.571C39.8575 32.571 38.7368 32.571 37.675 32.571C36.7313 32.571 36.0235 31.8042 36.0235 30.9194C36.0235 30.0347 36.7313 29.3269 37.675 29.3269C38.2059 29.3269 38.7957 29.3269 39.3266 29.3269Z" fill="white"/>
<path d="M22.2802 19.8301C21.8083 19.3582 21.3954 18.8863 20.9825 18.4734C20.2747 17.7656 19.272 17.7066 18.6231 18.4144C17.9153 19.0633 17.9743 20.066 18.6821 20.8328C19.036 21.1867 19.3899 21.5406 19.7438 21.8945C19.9798 22.1304 19.9208 22.1894 19.6259 22.3074C16.3817 23.841 12.3118 21.7765 11.663 18.2375C10.9552 14.5215 13.8454 11.2773 17.5614 11.4543C21.7493 11.6312 24.2856 16.173 22.2802 19.8301Z" fill="white"/>
</svg>
