<svg width="42" height="45" viewBox="0 0 42 45" fill="none" xmlns="http://www.w3.org/2000/svg">
<path d="M34.0899 9.49303C33.7632 11.048 34.4558 12.1587 35.5926 13.1125C36.1545 13.5829 36.6771 14.1056 37.0953 14.7067C38.3758 16.6144 38.1929 19.1233 36.6249 20.822C36.1022 21.3838 35.5665 21.9326 35.0046 22.4553C34.4558 22.9649 34.2206 23.579 34.2336 24.3239C34.2467 25.3169 34.3251 26.31 34.0899 27.29C33.5672 29.4591 31.6856 31.001 29.4643 31.0663C28.7586 31.0794 28.0661 31.0794 27.3605 31.0794C26.7072 31.0794 26.1584 31.2885 25.701 31.7589C25.1914 32.2815 24.6687 32.8042 24.1461 33.3138C22.0815 35.3392 19.1023 35.3522 17.0247 33.34C16.502 32.8303 15.9793 32.3077 15.4697 31.785C14.9862 31.2885 14.3982 31.0925 13.7188 31.0663C12.6342 31.0402 11.5366 31.1839 10.4651 30.8703C8.3875 30.2562 6.93709 28.3615 6.91095 26.2055C6.91095 25.5391 6.91095 24.8727 6.91095 24.2063C6.91095 23.5921 6.71495 23.0564 6.27068 22.6252C5.74801 22.0894 5.21227 21.5668 4.67653 21.031C2.58584 18.9142 2.58584 15.9611 4.67653 13.8573C5.18613 13.3477 5.69574 12.8381 6.20535 12.3416C6.68882 11.8712 6.89789 11.3093 6.91095 10.6429C6.92402 9.5845 6.78029 8.52609 7.05469 7.48075C7.61656 5.25939 9.55045 3.74364 11.8633 3.70444C12.4774 3.69137 13.1046 3.69137 13.7188 3.70444C14.346 3.71751 14.8556 3.49537 15.2998 3.06417C15.8225 2.55456 16.3321 2.01882 16.8548 1.50922C18.8932 -0.503072 21.99 -0.503072 24.0285 1.50922C24.4989 1.96655 24.9693 2.41083 25.4135 2.8943C25.9624 3.4823 26.6026 3.74364 27.4128 3.71751C28.3536 3.69137 29.3075 3.62604 30.2352 3.84817C32.5742 4.42311 34.0638 6.29167 34.116 8.70903C34.0899 8.97036 34.0899 9.2317 34.0899 9.49303ZM16.1622 16.7582C15.3782 16.7712 14.8817 17.0718 14.6334 17.6859C14.3721 18.3262 14.5028 18.9273 14.9993 19.4369C16.0969 20.5475 17.2076 21.6452 18.3183 22.7558C19.1023 23.5268 19.9647 23.5268 20.7618 22.7558C22.9439 20.5998 25.113 18.4438 27.2952 16.3008C27.5042 16.0918 27.6872 15.8696 27.844 15.6214C28.3928 14.6936 27.8701 13.5045 26.8117 13.3085C26.2106 13.1909 25.701 13.4131 25.2698 13.8443C23.4535 15.6736 21.6372 17.4899 19.821 19.3193C19.5988 19.5414 19.4812 19.5545 19.2591 19.3193C18.6057 18.6267 17.9263 17.9734 17.2729 17.307C16.9201 16.9411 16.5281 16.7451 16.1622 16.7582Z" fill="white"/>
<path d="M36.9777 27.9956C37.239 28.466 37.4873 28.8842 37.7225 29.3023C38.9246 31.4061 40.1137 33.4968 41.3289 35.6005C41.9823 36.7243 42.0345 37.8741 41.3028 38.9587C40.558 40.0694 39.4604 40.4352 38.1667 40.2784C37.2129 40.1608 36.259 40.0824 35.3051 39.9387C35.0046 39.8995 34.9262 40.004 34.8216 40.2392C34.4558 41.1408 34.0768 42.0294 33.6979 42.931C33.1883 44.1331 32.2736 44.8257 30.98 44.9171C29.6995 45.0086 28.6672 44.4467 28.0138 43.3099C26.8248 41.2584 25.6487 39.2069 24.4727 37.1555C24.3813 36.9987 24.2767 36.8811 24.5119 36.7373C25.4658 36.2016 26.2368 35.4568 26.9554 34.6597C27.3736 34.1893 27.8178 34.0325 28.445 34.0586C29.8563 34.124 31.2283 33.941 32.5219 33.3138C34.6648 32.2815 36.1153 30.6351 36.8339 28.3615C36.8731 28.257 36.9123 28.1655 36.9777 27.9956Z" fill="white"/>
<path d="M4.33679 28.9495C4.74186 29.9426 5.2776 30.8311 6.00934 31.5759C7.62962 33.2485 9.61578 34.1239 11.9286 34.0586C13.0131 34.0325 13.7972 34.3069 14.4897 35.1431C15.1692 35.9794 16.0577 36.6066 17.0508 37.0509C17.2991 37.1685 17.2991 37.273 17.1684 37.4821C16.0316 39.4291 14.9078 41.3891 13.758 43.323C13.0785 44.4728 12.0201 44.9694 10.7134 44.8256C9.51124 44.695 8.68803 44.0024 8.20456 42.9179C7.81256 42.0424 7.43362 41.1669 7.09388 40.2784C6.93708 39.8603 6.70188 39.8211 6.32294 39.8733C5.3168 40.0171 4.29759 40.1739 3.27838 40.2392C2.0893 40.3437 1.16156 39.8341 0.521282 38.8411C-0.132058 37.8349 -0.171259 36.7373 0.403681 35.692C1.64503 33.4706 2.95171 31.2884 4.23225 29.0801C4.25839 29.0409 4.28452 29.0148 4.33679 28.9495Z" fill="white"/>
</svg>
