<svg width="42" height="43" viewBox="0 0 42 43" fill="none" xmlns="http://www.w3.org/2000/svg">
<path d="M17.2063 42.0837C13.4185 42.0837 9.64268 42.0837 5.85491 42.0837C3.02305 42.0837 0.716928 40.2197 0.119488 37.4714C0.0358464 37.0771 0 36.6828 0 36.2766C0 29.9437 0 23.6228 0 17.2899C0 14.0279 2.55704 11.4828 5.80711 11.4709C8.28051 11.4589 10.7539 11.4709 13.2273 11.4709C13.8726 11.4709 14.4102 11.6979 14.8643 12.1639C15.8083 13.1317 16.7761 14.0876 17.732 15.0555C17.9232 15.2586 18.1144 15.3303 18.3892 15.3303C21.7349 15.3184 25.0925 15.3901 28.4381 15.3064C31.5209 15.2347 34.3886 17.6962 34.3767 21.1613C34.3647 26.1918 34.3886 31.2222 34.3647 36.2527C34.3528 39.1323 32.5485 41.3428 29.8003 41.9642C29.3701 42.0598 28.9161 42.0956 28.474 42.0956C24.7101 42.0837 20.9582 42.0837 17.2063 42.0837ZM17.2063 22.9656C16.6805 22.9656 16.1667 22.9775 15.641 22.9536C15.3542 22.9417 15.2586 23.0134 15.2706 23.3121C15.2945 24.3397 15.2706 25.3673 15.2825 26.3949C15.2825 26.6817 15.2228 26.7773 14.924 26.7653C13.8845 26.7414 12.845 26.7653 11.7935 26.7534C11.5425 26.7534 11.4589 26.8131 11.4708 27.064C11.4828 28.1036 11.4828 29.1551 11.4708 30.1946C11.4708 30.4933 11.5664 30.565 11.8532 30.565C12.8808 30.5531 13.9084 30.565 14.936 30.5531C15.2108 30.5531 15.2945 30.6128 15.2825 30.8996C15.2706 31.9391 15.2825 32.9906 15.2706 34.0302C15.2706 34.2931 15.3064 34.3886 15.6051 34.3886C16.6447 34.3647 17.6842 34.3647 18.7357 34.3886C19.0583 34.4006 19.0942 34.2692 19.0822 34.0063C19.0703 32.9906 19.0942 31.975 19.0703 30.9593C19.0703 30.6487 19.142 30.5531 19.4646 30.5531C20.4922 30.577 21.5198 30.5531 22.5474 30.565C22.8222 30.565 22.9058 30.5053 22.8939 30.2185C22.8819 29.179 22.8819 28.1275 22.8939 27.0879C22.8939 26.8131 22.8222 26.7414 22.5474 26.7414C21.5198 26.7534 20.4922 26.7414 19.4646 26.7534C19.1659 26.7534 19.0583 26.6936 19.0703 26.371C19.0942 25.3673 19.0583 24.3756 19.0822 23.3719C19.0942 23.0014 18.9747 22.9178 18.6282 22.9417C18.1622 22.9895 17.6842 22.9656 17.2063 22.9656Z" fill="white"/>
<path d="M42 21.0418C42 26.132 42 31.2222 42 36.3124C42 38.8097 40.4228 40.9844 38.0808 41.7849C37.5909 41.9522 37.0771 42.0239 36.5513 42.0837C36.3243 42.1076 36.2287 42.0478 36.2287 41.7969C36.2407 40.7095 36.2407 39.6222 36.2287 38.5229C36.2287 38.3317 36.2765 38.26 36.4797 38.2122C37.6626 37.9255 38.1525 37.2802 38.1525 36.0376C38.1525 26.0364 38.1525 16.0353 38.1525 6.03414C38.1525 4.60029 37.3878 3.83556 35.942 3.83556C29.7764 3.83556 23.6108 3.83556 17.4452 3.83556C16.0353 3.83556 15.2705 4.60029 15.2705 6.02219C15.2705 7.04979 15.2586 8.07739 15.2705 9.11693C15.2705 9.36786 15.1988 9.43955 14.9479 9.43955C13.8964 9.4276 12.833 9.43955 11.7695 9.4276C11.5903 9.4276 11.4111 9.4754 11.423 9.17668C11.4708 7.73087 11.3394 6.28507 11.5067 4.83926C11.7815 2.5212 13.9442 0.370413 16.2503 0.0836416C16.7283 0.0238976 17.1943 0 17.6722 0C23.8259 0 29.9795 0 36.1331 0C38.965 0 41.2592 1.85206 41.8566 4.61223C41.9522 5.06629 41.988 5.52034 41.988 5.98635C42 11.0168 42 16.0233 42 21.0418Z" fill="white"/>
<path d="M26.7295 7.64732C29.1312 7.64732 31.5209 7.65927 33.9226 7.63537C34.2572 7.63537 34.3886 7.69511 34.3767 8.06553C34.3528 9.08117 34.3528 10.0968 34.3767 11.1125C34.3886 11.4351 34.2691 11.5068 33.9704 11.5068C29.1312 11.4948 24.2919 11.4948 19.4526 11.5068C19.1181 11.5068 19.0703 11.3873 19.0703 11.0886C19.0822 10.0729 19.0942 9.05728 19.0703 8.04163C19.0583 7.69511 19.1778 7.62342 19.5004 7.62342C21.9141 7.65927 24.3277 7.64732 26.7295 7.64732Z" fill="white"/>
</svg>
