<svg width="29" height="33" viewBox="0 0 29 33" fill="none" xmlns="http://www.w3.org/2000/svg">
<path d="M2.46022 0C2.75545 0 3.05068 0 3.3459 0C4.05937 0.151325 4.74823 0.403534 5.38789 0.781848C12.4979 4.96852 19.608 9.15519 26.718 13.3419C27.2101 13.6445 27.6775 13.9724 28.0957 14.4011C29.2274 15.5865 29.3012 17.0746 28.2926 18.3608C27.8497 18.9409 27.2593 19.3192 26.6442 19.6975C19.5588 23.859 12.4979 28.0204 5.41249 32.1819C4.89584 32.4845 4.35459 32.7367 3.76414 32.8881C2.2142 33.2916 0.910282 32.5854 0.319829 31.0721C0.0492045 30.3912 0 29.685 0 28.9536C0 20.6307 0 12.333 0 4.01012C0 3.58137 0.0246022 3.12739 0.0984089 2.69864C0.319829 1.76546 0.688862 0.958394 1.50074 0.403534C1.79596 0.201767 2.14039 0.151325 2.46022 0Z" fill="white"/>
</svg>
